<?xml version="1.0" encoding="UTF-8"?>
<svg version="1.1" xmlns="http://www.w3.org/2000/svg" width="1141" height="449">
<path d="M0 0 C376.53 0 753.06 0 1141 0 C1141 148.17 1141 296.34 1141 449 C764.47 449 387.94 449 0 449 C0 300.83 0 152.66 0 0 Z " fill="#201E1E" transform="translate(0,0)"/>
<path d="M0 0 C1.22154282 -0.00307663 2.44308563 -0.00615326 3.7016449 -0.00932312 C5.01319046 -0.0021376 6.32473602 0.00504791 7.67602539 0.01245117 C9.04456031 0.01364465 10.41309606 0.01409578 11.78163147 0.01383972 C14.64548903 0.01540081 17.50922093 0.02366035 20.37304688 0.03710938 C24.03242091 0.05408245 27.69165685 0.05792386 31.35106564 0.05716419 C34.1761658 0.057437 37.00123616 0.06293616 39.82632637 0.07016563 C41.82813785 0.07486804 43.82995557 0.07662223 45.83177185 0.07832336 C47.05646683 0.08470322 48.2811618 0.09108307 49.54296875 0.09765625 C50.6159874 0.10146805 51.68900604 0.10527985 52.79454041 0.10920715 C55.88059922 0.24487255 58.80303104 0.67167961 61.83618164 1.24291992 C61.83618164 1.90291992 61.83618164 2.56291992 61.83618164 3.24291992 C62.66118164 3.32541992 63.48618164 3.40791992 64.33618164 3.49291992 C73.50549351 5.45777246 81.14571858 11.34132125 87.96118164 17.55541992 C88.47293945 18.00336914 88.98469727 18.45131836 89.51196289 18.9128418 C93.27382911 22.33140146 95.44642148 25.75956646 97.83618164 30.24291992 C98.37500977 31.02795898 98.91383789 31.81299805 99.46899414 32.62182617 C104.16202783 39.4893807 105.37936241 46.04491807 105.83618164 54.24291992 C105.88000977 55.02586426 105.92383789 55.80880859 105.96899414 56.61547852 C106.47502478 67.47194415 106.1903646 77.10775958 101.83618164 87.24291992 C101.56773437 87.88745117 101.29928711 88.53198242 101.02270508 89.19604492 C96.86261469 98.99966879 92.33556577 105.5880202 83.83618164 112.24291992 C82.94930664 113.19166992 82.06243164 114.14041992 81.14868164 115.11791992 C78.28084425 117.75322996 75.44518542 118.81176325 71.83618164 120.24291992 C70.61650688 120.91009244 69.40785606 121.59782114 68.21118164 122.30541992 C61.80505085 125.98301352 57.22211114 126.52038793 49.94165039 126.43823242 C48.9942952 126.43540253 48.04694 126.43257263 47.07087708 126.42965698 C44.05501498 126.41849179 41.03945348 126.39339381 38.02368164 126.36791992 C35.97485781 126.35788539 33.92602932 126.34876037 31.87719727 126.34057617 C26.86331735 126.32026884 21.85008466 126.281113 16.83618164 126.24291992 C16.83618164 139.44291992 16.83618164 152.64291992 16.83618164 166.24291992 C11.88618164 166.24291992 6.93618164 166.24291992 1.83618164 166.24291992 C1.83618164 147.43291992 1.83618164 128.62291992 1.83618164 109.24291992 C27.64868164 108.86791992 27.64868164 108.86791992 35.72998047 108.76489258 C37.87606988 108.72964211 40.02214835 108.69371603 42.16821289 108.65698242 C43.25630249 108.64562256 44.34439209 108.6342627 45.4654541 108.62255859 C59.27214891 108.64356166 59.27214891 108.64356166 70.83618164 102.24291992 C71.42657227 101.75952148 72.01696289 101.27612305 72.62524414 100.77807617 C82.13737131 92.97372473 88.80155775 84.61701619 90.83618164 72.24291992 C91.12342591 68.94895493 91.23794062 65.67364566 91.27368164 62.36791992 C91.28399414 61.57135986 91.29430664 60.7747998 91.30493164 59.95410156 C91.22594744 54.7230437 90.1504769 51.01297103 87.83618164 46.24291992 C87.34118164 44.77918945 87.34118164 44.77918945 86.83618164 43.28588867 C83.13317782 32.71207699 76.0576574 26.14278405 66.14868164 21.11791992 C64.719793 20.47347559 63.28541179 19.84021651 61.83618164 19.24291992 C61.83618164 18.58291992 61.83618164 17.92291992 61.83618164 17.24291992 C53.41304976 17.21976113 44.98993116 17.20198676 36.56677532 17.19110775 C32.65567082 17.18588668 28.74458807 17.17880307 24.83349609 17.16748047 C21.05987649 17.15662408 17.28627783 17.15063723 13.51264381 17.14804268 C12.07212812 17.14619341 10.63161358 17.1425823 9.1911068 17.13718987 C7.17526744 17.12994307 5.15940706 17.12951155 3.14355469 17.12939453 C1.9954985 17.12717392 0.84744232 17.12495331 -0.33540344 17.12266541 C-3.24277323 17.11610267 -3.24277323 17.11610267 -6.16381836 18.24291992 C-6.16381836 66.75291992 -6.16381836 115.26291992 -6.16381836 165.24291992 C-10.78381836 165.24291992 -15.40381836 165.24291992 -20.16381836 165.24291992 C-20.16381836 115.74291992 -20.16381836 66.24291992 -20.16381836 15.24291992 C-19.50381836 15.24291992 -18.84381836 15.24291992 -18.16381836 15.24291992 C-18.30819336 14.39729492 -18.45256836 13.55166992 -18.60131836 12.68041992 C-18.03671236 8.24422995 -16.30905297 6.78210111 -13.18334961 3.75854492 C-8.98326127 0.60644768 -5.17511537 -0.00687789 0 0 Z " fill="#F7F7F7" transform="translate(79.163818359375,128.757080078125)"/>
<path d="M0 0 C1.54167331 0.00358122 3.08335324 0.00493365 4.62503052 0.00416565 C7.85151351 0.00884848 11.07699235 0.03361501 14.30322266 0.07397461 C18.42110219 0.12485902 22.53787736 0.13641928 26.65603447 0.13413906 C29.83902361 0.1349585 33.02177546 0.15147225 36.20468521 0.17314339 C37.72198825 0.18263373 39.23931795 0.18858917 40.75664902 0.19082451 C48.4848212 0.21467197 55.31129606 0.26921744 62.3828125 3.69140625 C63.39988281 4.11421875 64.41695312 4.53703125 65.46484375 4.97265625 C66.36589844 5.37484375 67.26695312 5.77703125 68.1953125 6.19140625 C69.10925781 6.59359375 70.02320313 6.99578125 70.96484375 7.41015625 C73.28468376 8.63940912 74.5795118 9.8337595 76.3828125 11.69140625 C77.03378906 12.0059375 77.68476562 12.32046875 78.35546875 12.64453125 C80.7846537 13.89890807 82.06746317 15.35256039 83.8203125 17.44140625 C84.37589844 18.09625 84.93148437 18.75109375 85.50390625 19.42578125 C86.43396484 20.54726562 86.43396484 20.54726562 87.3828125 21.69140625 C88.21554687 22.60148437 89.04828125 23.5115625 89.90625 24.44921875 C92.77912921 27.90865547 94.17031628 31.58201494 95.5703125 35.81640625 C95.82441895 36.56776855 96.07852539 37.31913086 96.34033203 38.09326172 C101.31992393 53.27858398 103.84758464 73.76186196 96.3828125 88.69140625 C95.7228125 88.69140625 95.0628125 88.69140625 94.3828125 88.69140625 C94.3828125 89.68140625 94.3828125 90.67140625 94.3828125 91.69140625 C93.7228125 91.69140625 93.0628125 91.69140625 92.3828125 91.69140625 C92.1765625 92.51640625 91.9703125 93.34140625 91.7578125 94.19140625 C86.87148993 106.62931824 74.74017095 116.14551091 63.04296875 121.828125 C56.16100118 124.53600091 49.33294325 124.86353435 42.046875 125.0078125 C41.16752289 125.0285936 40.28817078 125.04937469 39.38217163 125.07078552 C36.59079319 125.13583588 33.79932579 125.19495773 31.0078125 125.25390625 C29.10806395 125.29713387 27.20832419 125.34074948 25.30859375 125.38476562 C20.66675626 125.4921968 16.02484519 125.59160042 11.3828125 125.69140625 C11.0528125 138.56140625 10.7228125 151.43140625 10.3828125 164.69140625 C5.7628125 164.69140625 1.1428125 164.69140625 -3.6171875 164.69140625 C-3.6171875 146.54140625 -3.6171875 128.39140625 -3.6171875 109.69140625 C20.8828125 109.25390625 20.8828125 109.25390625 28.57226562 109.12329102 C30.60287093 109.08513422 32.63347034 109.04666226 34.6640625 109.0078125 C35.70272461 108.99133667 36.74138672 108.97486084 37.81152344 108.95788574 C48.44349144 108.8423867 48.44349144 108.8423867 58.6953125 106.31640625 C59.33082031 106.08179688 59.96632813 105.8471875 60.62109375 105.60546875 C62.63610311 104.55998718 63.82842023 103.33841775 65.3828125 101.69140625 C66.649802 100.62432555 67.92091752 99.56213167 69.1953125 98.50390625 C73.27083684 94.92102771 76.52264655 91.30795579 79.3828125 86.69140625 C79.87136719 85.92183594 80.35992188 85.15226562 80.86328125 84.359375 C84.59822706 77.2138064 84.84523253 70.51881267 84.8828125 62.56640625 C84.88909668 61.55320313 84.89538086 60.54 84.90185547 59.49609375 C84.74703169 50.26078046 83.16595272 42.25039164 77.5078125 34.75390625 C76.52167969 33.41005859 76.52167969 33.41005859 75.515625 32.0390625 C73.31122333 29.61260572 71.23112728 28.2717005 68.3828125 26.69140625 C67.8053125 26.05203125 67.2278125 25.41265625 66.6328125 24.75390625 C62.64386722 21.09737308 57.46633626 19.38591417 52.3828125 17.69140625 C52.3828125 17.03140625 52.3828125 16.37140625 52.3828125 15.69140625 C44.48112392 15.79891901 36.57953212 15.91155469 28.67801189 16.03074551 C25.00908582 16.08592826 21.34015171 16.13934079 17.67114258 16.1887207 C14.13087358 16.23643287 10.59070073 16.2887781 7.05054665 16.344347 C5.04144951 16.3746692 3.03228169 16.4001831 1.02311707 16.42564392 C-0.80844185 16.45556175 -0.80844185 16.45556175 -2.67700195 16.48608398 C-3.75399857 16.50162827 -4.83099518 16.51717255 -5.94062805 16.53318787 C-8.7193754 16.58119372 -8.7193754 16.58119372 -11.6171875 17.69140625 C-11.6171875 66.20140625 -11.6171875 114.71140625 -11.6171875 164.69140625 C-16.2371875 164.69140625 -20.8571875 164.69140625 -25.6171875 164.69140625 C-25.70979446 144.97672863 -25.78117158 125.26211246 -25.82443619 105.54726219 C-25.84505891 96.3932492 -25.87317394 87.23937386 -25.91894531 78.08544922 C-25.95882198 70.10661401 -25.98462243 62.12787849 -25.99354148 54.1489464 C-25.99875484 49.92436101 -26.01100194 45.70006082 -26.04010773 41.47556686 C-26.06729005 37.49796243 -26.07562689 33.52076025 -26.06961823 29.54307175 C-26.07071721 28.08459282 -26.07865463 26.62610023 -26.0940094 25.16770172 C-26.11397719 23.17304765 -26.10672668 21.17817697 -26.09820557 19.18344116 C-26.10189274 18.06807165 -26.10557991 16.95270214 -26.10937881 15.80353355 C-25.50052182 11.95372876 -23.94137618 9.77737858 -21.6171875 6.69140625 C-21.23634003 6.07294327 -20.85549255 5.45448029 -20.46310425 4.817276 C-15.56997692 -1.55192362 -7.2472107 -0.11099941 0 0 Z " fill="#F5F5F5" transform="translate(451.6171875,129.30859375)"/>
<path d="M0 0 C1.04465424 -0.00073013 2.08930847 -0.00146027 3.1656189 -0.00221252 C6.60191646 0.00125745 10.03684102 0.04009289 13.47290039 0.0793457 C15.86185465 0.08867587 18.2508185 0.09579102 20.63978577 0.1007843 C26.9150757 0.11983773 33.18978326 0.16892545 39.46484375 0.2243042 C45.87304812 0.27553169 52.28134697 0.29830589 58.68969727 0.32348633 C71.25440569 0.37704483 83.81868266 0.4623385 96.38305664 0.56762695 C96.38305664 6.17762695 96.38305664 11.78762695 96.38305664 17.56762695 C95.09488541 17.57793442 93.80671417 17.58824188 92.47950745 17.59886169 C80.36838201 17.69641269 68.25731006 17.7991289 56.14627171 17.90696621 C49.9191475 17.96224509 43.69201864 18.01567288 37.46484375 18.06494141 C31.46074623 18.1125119 25.45670786 18.16485177 19.45268059 18.2205677 C17.15645753 18.24102452 14.86021823 18.25973196 12.56396675 18.27670097 C9.3598045 18.3006716 6.15575524 18.33073582 2.95166016 18.36230469 C1.51236397 18.37093788 1.51236397 18.37093788 0.04399109 18.37974548 C-1.25805771 18.39442871 -1.25805771 18.39442871 -2.58641052 18.40940857 C-3.72436396 18.4190874 -3.72436396 18.4190874 -4.88530636 18.42896175 C-6.64716489 18.38171254 -6.64716489 18.38171254 -7.61694336 19.56762695 C-7.71311143 21.25054392 -7.73882026 22.93752256 -7.73719788 24.6231842 C-7.73857254 25.7183989 -7.7399472 26.81361359 -7.74136353 27.9420166 C-7.73776825 29.15401733 -7.73417297 30.36601807 -7.73046875 31.61474609 C-7.73061478 32.88285629 -7.7307608 34.15096649 -7.73091125 35.45750427 C-7.73119921 38.94495117 -7.7253028 42.43236396 -7.7183373 45.9198029 C-7.71210343 49.56066419 -7.71149993 53.20152617 -7.71031189 56.84239197 C-7.70719867 63.74139667 -7.69898541 70.64038561 -7.6889624 77.53938335 C-7.67571564 86.85881615 -7.67030128 96.17825323 -7.66446018 105.49769306 C-7.65504551 120.18768285 -7.63512654 134.87763935 -7.61694336 149.56762695 C26.04305664 149.89762695 59.70305664 150.22762695 94.38305664 150.56762695 C94.38305664 155.51762695 94.38305664 160.46762695 94.38305664 165.56762695 C80.83101478 165.68357907 67.27909132 165.7723725 53.72665405 165.82668781 C47.43339491 165.85275914 41.14047565 165.88811338 34.84741211 165.94482422 C28.77196928 165.99923007 22.69685298 166.02906603 16.6211853 166.04201317 C14.30556093 166.05123751 11.98995402 166.06925063 9.67446899 166.09627724 C6.42589987 166.13268008 3.17867257 166.1375674 -0.07006836 166.13525391 C-1.49966637 166.16221848 -1.49966637 166.16221848 -2.95814514 166.18972778 C-10.43476469 166.13227652 -15.33592003 163.84865029 -20.61694336 158.56762695 C-21.31050759 156.24214689 -21.97843548 153.9088225 -22.61694336 151.56762695 C-22.94694336 151.23762695 -23.27694336 150.90762695 -23.61694336 150.56762695 C-23.72632387 148.82931557 -23.76548793 147.08655599 -23.77757263 145.34484863 C-23.78761826 144.21215546 -23.79766388 143.07946228 -23.80801392 141.91244507 C-23.81384491 140.65847931 -23.8196759 139.40451355 -23.82568359 138.11254883 C-23.83546738 136.80037384 -23.84525116 135.48819885 -23.85533142 134.13626099 C-23.88678415 129.76966325 -23.90700016 125.40304612 -23.92553711 121.03637695 C-23.92883443 120.29336397 -23.93213175 119.55035099 -23.93552899 118.78482246 C-23.96632851 111.77496941 -23.99303513 104.76511212 -24.00994778 97.75521088 C-24.03182335 88.79304902 -24.07370856 79.83148877 -24.14338535 70.86956739 C-24.19071537 64.56712672 -24.21489383 58.26484775 -24.22214466 51.96223497 C-24.22709029 48.19962557 -24.24206357 44.4376932 -24.28188896 40.67527771 C-24.31892589 37.1291844 -24.32711058 33.58414982 -24.31388283 30.03789902 C-24.31396196 28.12750468 -24.34370756 26.21718234 -24.37457275 24.30703735 C-24.29937347 15.34461148 -22.21752223 10.33473163 -16.03588676 3.92934132 C-11.15391018 -0.2290551 -6.17719514 -0.11384859 0 0 Z " fill="#FAFAFA" transform="translate(265.616943359375,128.432373046875)"/>
<path d="M0 0 C8.745 -0.061875 17.49 -0.12375 26.5 -0.1875 C30.61952148 -0.22846802 30.61952148 -0.22846802 34.82226562 -0.27026367 C37.01692262 -0.27903156 39.21158452 -0.28667478 41.40625 -0.29296875 C42.5312793 -0.30831665 43.65630859 -0.32366455 44.81542969 -0.33947754 C56.18441254 -0.34324044 63.75160911 2.96794851 71.91796875 10.8515625 C79.47554289 18.94090625 82.1877814 27.34088125 82.0625 38.25 C82.05798828 38.99507812 82.05347656 39.74015625 82.04882812 40.5078125 C82.03709246 42.3385764 82.0191585 44.16929873 82 46 C81.34 46 80.68 46 80 46 C79.979375 46.928125 79.95875 47.85625 79.9375 48.8125 C79.13604565 54.56411354 75.56370812 59.55089856 72 64 C69.7890625 65.20703125 69.7890625 65.20703125 68 66 C67.896875 66.61875 67.79375 67.2375 67.6875 67.875 C66.72226445 70.85845534 64.73460433 71.62127709 62.08203125 73.0703125 C55.1311586 76.17407928 49.1248408 76.26311864 41.6015625 76.1953125 C40.01831177 76.19229126 40.01831177 76.19229126 38.40307617 76.18920898 C34.47700629 76.17878005 30.55099858 76.15085754 26.625 76.125 C17.83875 76.08375 9.0525 76.0425 0 76 C0 50.92 0 25.84 0 0 Z " fill="#F1F1F1" transform="translate(448,154)"/>
<path d="M0 0 C17.82 0 35.64 0 54 0 C54 0.66 54 1.32 54 2 C55.27875 2.0825 56.5575 2.165 57.875 2.25 C60.1015625 2.515625 60.1015625 2.515625 62 3 C63.25 5 63.25 5 64 7 C64.90298828 7.21462891 64.90298828 7.21462891 65.82421875 7.43359375 C69.90089767 8.49484769 72.45325984 11.7827413 75 15 C76.87352754 18.5832852 78 21.91064197 78 26 C78.66 26 79.32 26 80 26 C81.72643681 29.45287361 81.22701028 33.32020111 81.25 37.125 C81.270625 37.95515625 81.29125 38.7853125 81.3125 39.640625 C81.35027635 45.66595313 80.91688511 52.04379637 76.44238281 56.57861328 C75.72840332 57.28219971 75.72840332 57.28219971 75 58 C74.62875 59.1446875 74.62875 59.1446875 74.25 60.3125 C71.89337734 65.37923871 67.66232311 68.33507075 62.5625 70.375 C61.2940625 70.684375 61.2940625 70.684375 60 71 C60 71.66 60 72.32 60 73 C52.86088402 74.88162747 46.32850835 75.26671978 38.96484375 75.1953125 C37.97133911 75.19329834 36.97783447 75.19128418 35.95422363 75.18920898 C32.28193471 75.17883172 28.60971218 75.1509099 24.9375 75.125 C16.708125 75.08375 8.47875 75.0425 0 75 C0 50.25 0 25.5 0 0 Z " fill="#F4F4F4" transform="translate(82,154)"/>
<path d="M0 0 C31.68 0 63.36 0 96 0 C96 4.95 96 9.9 96 15 C94.28012794 16.71987206 92.09122971 16.11974788 89.79867554 16.12442017 C88.68197983 16.11902725 88.68197983 16.11902725 87.54272461 16.11352539 C86.76229294 16.11367142 85.98186127 16.11381744 85.17778015 16.1139679 C82.5859402 16.11326858 79.99417122 16.10547536 77.40234375 16.09765625 C75.6101536 16.09579213 73.81796294 16.0943682 72.02577209 16.09336853 C67.29929203 16.08954284 62.57284248 16.07971212 57.84637451 16.06866455 C53.0271445 16.05845153 48.20790958 16.05387115 43.38867188 16.04882812 C33.92576565 16.03808989 24.46289013 16.02049268 15 16 C15 22.93 15 29.86 15 37 C17.23644287 36.99476318 19.47288574 36.98952637 21.77709961 36.98413086 C29.14919278 36.96759418 36.52128674 36.95652846 43.89339352 36.94818783 C48.36505549 36.94295926 52.83669853 36.93586211 57.30834961 36.92456055 C61.62011973 36.91373071 65.93187159 36.90772296 70.24365425 36.90512276 C71.89236298 36.90326868 73.54107066 36.8996484 75.18977165 36.89426994 C77.49103872 36.88705822 79.7922294 36.88600911 82.09350586 36.88647461 C84.06207802 36.88314369 84.06207802 36.88314369 86.07041931 36.87974548 C89 37 89 37 90 38 C90.09975032 40.51136104 90.13882183 42.98903415 90.125 45.5 C90.12886719 46.20253906 90.13273437 46.90507812 90.13671875 47.62890625 C90.12661378 52.87338622 90.12661378 52.87338622 89 54 C86.23061034 54.09517803 83.48622841 54.12554265 80.71655273 54.11352539 C79.41423203 54.11374443 79.41423203 54.11374443 78.08560181 54.1139679 C75.20157414 54.11326846 72.3176102 54.10547463 69.43359375 54.09765625 C67.43962133 54.09579218 65.44564845 54.09436823 63.45167542 54.09336853 C58.19254298 54.08954248 52.93343797 54.07971145 47.67431641 54.06866455 C41.3701255 54.05665815 35.06592544 54.05204861 28.76172638 54.04621124 C19.17446515 54.03649974 9.58726416 54.01734379 0 54 C0 36.18 0 18.36 0 0 Z " fill="#ECECEC" transform="translate(265,154)"/>
<path d="M0 0 C29.7 0 59.4 0 90 0 C90 5.28 90 10.56 90 16 C64.92 16 39.84 16 14 16 C14 23.59 14 31.18 14 39 C41.06 39 68.12 39 96 39 C96 43.95 96 48.9 96 54 C64.32 54 32.64 54 0 54 C0 36.18 0 18.36 0 0 Z " fill="#F2F2F2" transform="translate(265,216)"/>
<path d="M0 0 C8.3840625 -0.12375 8.3840625 -0.12375 16.9375 -0.25 C18.68281006 -0.28641602 20.42812012 -0.32283203 22.22631836 -0.36035156 C37.88357135 -0.552271 37.88357135 -0.552271 44 4 C46.375 7.0625 46.375 7.0625 48 10 C48.98165594 11.01801357 49.97591432 12.0246803 51 13 C53.71067978 18.42135956 52.816705 27.48997229 50.98828125 33.109375 C48.73539194 37.68280795 46.58371894 41.6407015 41.9609375 44.07275391 C37.91779833 45.33890188 34.19142159 45.24808185 29.98046875 45.1953125 C29.21883423 45.19329834 28.45719971 45.19128418 27.67248535 45.18920898 C24.8440951 45.17879341 22.01579111 45.15087096 19.1875 45.125 C12.855625 45.08375 6.52375 45.0425 0 45 C0 30.15 0 15.3 0 0 Z " fill="#1B191A" transform="translate(96,169)"/>
<path d="M0 0 C9.4359375 -0.12375 9.4359375 -0.12375 19.0625 -0.25 C22.02101929 -0.30462402 22.02101929 -0.30462402 25.03930664 -0.36035156 C26.62124547 -0.37204563 28.20319644 -0.38223576 29.78515625 -0.390625 C30.59142456 -0.41108887 31.39769287 -0.43155273 32.22839355 -0.45263672 C37.98206618 -0.4561531 41.24737993 0.72982401 46 4 C47.7421875 5.78125 47.7421875 5.78125 48.875 7.5 C49.26429688 8.0671875 49.65359375 8.634375 50.0546875 9.21875 C52.24862407 13.35277923 52.16300417 17.37518682 52.1875 22 C52.20167969 23.216875 52.21585938 24.43375 52.23046875 25.6875 C52.01586625 28.7719563 51.62758774 30.42673876 50 33 C49.34 33 48.68 33 48 33 C47.7525 33.7425 47.505 34.485 47.25 35.25 C45.54555603 38.99977674 43.55728326 41.18361647 39.8996582 43.10107422 C36.0586148 44.29183971 32.39646732 44.24795295 28.41796875 44.1953125 C27.69565063 44.19329834 26.97333252 44.19128418 26.22912598 44.18920898 C23.54851875 44.17879886 20.86800254 44.15087645 18.1875 44.125 C12.185625 44.08375 6.18375 44.0425 0 44 C0 29.48 0 14.96 0 0 Z " fill="#1C1A1B" transform="translate(463,170)"/>
<path d="M0 0 C3.2989617 2.30927319 5.10442155 3.69219291 5.88671875 7.76171875 C6.22484118 12.18736573 5.78245124 15.02368258 2.9375 18.5 C-0.2225831 21.73550274 -3.73293896 24.26373972 -7.5 26.75 C-5.71479439 28.75611734 -3.92241288 30.7548717 -2.125 32.75 C-1.61710937 33.32234375 -1.10921875 33.8946875 -0.5859375 34.484375 C0.73504905 35.94441277 2.11400799 37.35152157 3.5 38.75 C4.16 38.75 4.82 38.75 5.5 38.75 C7.08255197 34.42435795 7.95144652 30.321279 8.5 25.75 C10.81 25.75 13.12 25.75 15.5 25.75 C15.99594866 31.45340958 14.70384957 35.30805861 12.375 40.515625 C11.31767757 42.81564082 11.31767757 42.81564082 11.5 45.75 C14.14 47.07 16.78 48.39 19.5 49.75 C19.5 51.73 19.5 53.71 19.5 55.75 C16.48651815 56.11749779 14.3096052 56.28796135 11.71875 54.56640625 C10.83703125 53.85291016 10.83703125 53.85291016 9.9375 53.125 C8.21760958 51.74042907 8.21760958 51.74042907 6.5 50.75 C3.93562001 51.13993968 3.93562001 51.13993968 1.5 52.75 C-5.91262554 56.0729011 -12.91793533 57.21971886 -20.8125 54.6875 C-24.97660372 51.68547174 -28.82068294 48.7091463 -30.015625 43.50390625 C-30.26926547 38.13216344 -29.01043276 34.92456869 -25.5 30.75 C-22.875 27.875 -22.875 27.875 -20.5 25.75 C-19.84 25.75 -19.18 25.75 -18.5 25.75 C-18.84933594 25.27691406 -19.19867187 24.80382812 -19.55859375 24.31640625 C-23.01797968 19.2890267 -24.90098138 14.93656993 -24.5 8.75 C-23.01216314 4.52141103 -21.36411644 2.04431914 -17.5 -0.25 C-11.79233892 -2.15255369 -5.64370909 -2.01561039 0 0 Z " fill="#E3E3DE" transform="translate(1043.5,192.25)"/>
<path d="M0 0 C2.31 0 4.62 0 7 0 C7 18.48 7 36.96 7 56 C5.02 56 3.04 56 1 56 C0.67 54.68 0.34 53.36 0 52 C-0.763125 52.639375 -1.52625 53.27875 -2.3125 53.9375 C-6.30503768 57.00154054 -9.75159857 57.45787848 -14.64453125 57.41796875 C-18.75624973 56.68836033 -21.39373367 54.1477344 -24 51 C-27.76793864 44.3326645 -28.21611572 35.61330855 -26.28125 28.2734375 C-24.11275679 22.34505686 -21.77296755 18.88648378 -16 16 C-14.046875 15.76171875 -14.046875 15.76171875 -11.75 15.6875 C-11.00234375 15.65011719 -10.2546875 15.61273438 -9.484375 15.57421875 C-7 16 -7 16 -1 20 C-0.67 13.4 -0.34 6.8 0 0 Z " fill="#E3E5E1" transform="translate(782,292)"/>
<path d="M0 0 C4.71640919 2.12371145 7.17619361 4.67202523 9.64453125 9.3125 C11.84199059 15.90487801 11.93953353 24.57563021 8.95703125 30.9375 C5.95845088 35.87882257 2.04749892 38.46162915 -3.35546875 40.3125 C-9.47936961 40.99887608 -15.2460922 41.0837065 -20.35546875 37.3125 C-26.14760203 30.9206363 -26.71981195 24.76856541 -26.63671875 16.32421875 C-26.10314793 10.61056459 -23.97135624 6.84759312 -19.85546875 2.9375 C-13.52237389 -1.17901166 -7.41105052 -2.16309269 0 0 Z " fill="#E3E2DE" transform="translate(806.35546875,107.6875)"/>
<path d="M0 0 C5.05498893 2.7036099 7.17347887 6.26204954 8.94921875 11.62890625 C10.90368925 19.77660515 9.32856113 26.77444793 5.57421875 34.234375 C2.03277819 37.9574279 -1.96390277 39.92210133 -7.07421875 40.5703125 C-13.45657668 40.66175029 -17.3677529 40.26015267 -22.42578125 36.234375 C-27.57943571 29.44163777 -28.03161675 22.47602397 -27.42578125 14.234375 C-26.33189546 8.36352005 -23.74544039 5.06620593 -19.14453125 1.36328125 C-13.81619486 -2.13646697 -5.90065717 -1.86236522 0 0 Z " fill="#E2E3DF" transform="translate(935.42578125,207.765625)"/>
<path d="M0 0 C4.31085356 3.07918111 7.69980482 6.48432194 8.625 11.875 C9.21959463 19.78993181 9.75527964 27.37978358 4.625 33.875 C1.25820784 37.37365086 -1.89536334 39.67258068 -6.86328125 40.078125 C-12.4370623 40.17063589 -16.66063323 40.2095521 -21.375 36.875 C-27.37102549 30.54586199 -27.77571961 24.69524348 -27.6171875 16.2578125 C-27.17750614 10.1164567 -25.49634722 6.66214358 -20.875 2.5 C-14.9497273 -2.35976314 -7.08445904 -2.36148635 0 0 Z " fill="#E5E5E1" transform="translate(926.375,309.125)"/>
<path d="M0 0 C1.34868164 -0.0309375 1.34868164 -0.0309375 2.72460938 -0.0625 C9.65432315 -0.1031733 13.84674017 1.10586102 19.1875 5.75 C22.02744762 9.41444855 21.89114911 13.13987794 21.671875 17.62890625 C20.93258617 23.02089325 18.52656377 26.87874899 14.3125 30.25 C8.61430574 33.09909713 2.52829944 32.38812888 -3.6875 32.25 C-3.6875 38.85 -3.6875 45.45 -3.6875 52.25 C-5.9975 52.25 -8.3075 52.25 -10.6875 52.25 C-10.71276739 45.00513449 -10.7303318 37.76028026 -10.74243164 30.51538086 C-10.74747356 28.04857967 -10.75430691 25.58178148 -10.76293945 23.11499023 C-10.77501125 19.57795471 -10.78072956 16.04095855 -10.78515625 12.50390625 C-10.79031754 11.39350479 -10.79547882 10.28310333 -10.80079651 9.13905334 C-10.80087204 8.11807053 -10.80094757 7.09708771 -10.80102539 6.04516602 C-10.803246 5.14137711 -10.80546661 4.2375882 -10.80775452 3.30641174 C-10.51185536 -1.75361018 -3.87777807 0.02176998 0 0 Z " fill="#E6E7E2" transform="translate(656.6875,295.75)"/>
<path d="M0 0 C1.34868164 -0.0309375 1.34868164 -0.0309375 2.72460938 -0.0625 C9.65432315 -0.1031733 13.84674017 1.10586102 19.1875 5.75 C22.02744762 9.41444855 21.89114911 13.13987794 21.671875 17.62890625 C20.93258617 23.02089325 18.52656377 26.87874899 14.3125 30.25 C8.61430574 33.09909713 2.52829944 32.38812888 -3.6875 32.25 C-3.6875 38.85 -3.6875 45.45 -3.6875 52.25 C-5.9975 52.25 -8.3075 52.25 -10.6875 52.25 C-10.71276739 45.00513449 -10.7303318 37.76028026 -10.74243164 30.51538086 C-10.74747356 28.04857967 -10.75430691 25.58178148 -10.76293945 23.11499023 C-10.77501125 19.57795471 -10.78072956 16.04095855 -10.78515625 12.50390625 C-10.79031754 11.39350479 -10.79547882 10.28310333 -10.80079651 9.13905334 C-10.80087204 8.11807053 -10.80094757 7.09708771 -10.80102539 6.04516602 C-10.803246 5.14137711 -10.80546661 4.2375882 -10.80775452 3.30641174 C-10.51185536 -1.75361018 -3.87777807 0.02176998 0 0 Z " fill="#E6E7E2" transform="translate(656.6875,94.75)"/>
<path d="M0 0 C3.14344435 1.74635797 5.46862726 3.46862726 8 6 C8.94875 5.195625 9.8975 4.39125 10.875 3.5625 C14.54341498 0.45232208 16.93664508 -0.34830634 21.8984375 -0.28515625 C25.33769673 0.18150904 27.41146518 1.78125587 30 4 C32.49477596 7.6358795 32.22953746 11.07828054 32.1953125 15.390625 C32.1924826 16.09523865 32.18965271 16.79985229 32.18673706 17.52581787 C32.17557801 19.7673876 32.15048193 22.00855186 32.125 24.25 C32.11496464 25.77343171 32.10583976 27.29686971 32.09765625 28.8203125 C32.07565291 32.54700586 32.04115272 36.27346333 32 40 C30.00045254 40.04254356 27.99958364 40.04080783 26 40 C24.15506401 38.15506401 24.82554804 35.13738016 24.7890625 32.6640625 C24.76070312 31.37242187 24.73234375 30.08078125 24.703125 28.75 C24.66186857 26.68717853 24.62499479 24.62459206 24.59863281 22.56152344 C24.57102406 20.57464494 24.52404862 18.58806532 24.4765625 16.6015625 C24.4468335 14.81226318 24.4468335 14.81226318 24.41650391 12.98681641 C24.23085803 10.03078752 24.23085803 10.03078752 22.68505859 8.08349609 C20.8518624 6.68402061 20.8518624 6.68402061 17.5625 7.0625 C13.62159565 8.09958009 12.46112455 8.83370875 10 12 C9.37681343 14.97126537 9.37681343 14.97126537 9.42578125 18.26171875 C9.39806641 19.46248047 9.37035156 20.66324219 9.34179688 21.90039062 C9.33212891 23.15013672 9.32246094 24.39988281 9.3125 25.6875 C9.27062797 28.17063808 9.22525402 30.65372047 9.17578125 33.13671875 C9.16458252 34.23717529 9.15338379 35.33763184 9.1418457 36.47143555 C9 39 9 39 8 40 C6.00041636 40.04080783 3.99954746 40.04254356 2 40 C1.98018066 39.20827393 1.96036133 38.41654785 1.93994141 37.60083008 C1.8445284 34.0043924 1.73491409 30.40852249 1.625 26.8125 C1.5940625 25.56662109 1.563125 24.32074219 1.53125 23.03710938 C1.49257813 21.83505859 1.45390625 20.63300781 1.4140625 19.39453125 C1.3826416 18.28956299 1.3512207 17.18459473 1.31884766 16.04614258 C1.00122818 13.01173354 0.27753965 10.75455478 -1 8 C-5.17553199 6.91436168 -7.27484173 6.63742086 -11.1875 8.59375 C-14.45014362 11.50861732 -14.53038301 14.36736097 -14.8046875 18.61328125 C-14.85773071 21.17924633 -14.88011511 23.74599183 -14.875 26.3125 C-14.895625 27.62541016 -14.91625 28.93832031 -14.9375 30.29101562 C-14.98458308 33.52797708 -15.00444196 36.76276616 -15 40 C-17.31 40 -19.62 40 -22 40 C-22 27.13 -22 14.26 -22 1 C-20.02 1 -18.04 1 -16 1 C-15.67 2.32 -15.34 3.64 -15 5 C-14.01 4.175 -13.02 3.35 -12 2.5 C-7.74086606 -0.52011316 -5.15930096 -0.73704299 0 0 Z " fill="#E4E3DD" transform="translate(877,107)"/>
<path d="M0 0 C1.04465424 -0.00073013 2.08930847 -0.00146027 3.1656189 -0.00221252 C6.60191646 0.00125745 10.03684102 0.04009289 13.47290039 0.0793457 C15.86185465 0.08867587 18.2508185 0.09579102 20.63978577 0.1007843 C26.9150757 0.11983773 33.18978326 0.16892545 39.46484375 0.2243042 C45.87304812 0.27553169 52.28134697 0.29830589 58.68969727 0.32348633 C71.25440569 0.37704483 83.81868266 0.4623385 96.38305664 0.56762695 C96.38305664 6.17762695 96.38305664 11.78762695 96.38305664 17.56762695 C95.09488541 17.57793442 93.80671417 17.58824188 92.47950745 17.59886169 C80.36838201 17.69641269 68.25731006 17.7991289 56.14627171 17.90696621 C49.9191475 17.96224509 43.69201864 18.01567288 37.46484375 18.06494141 C31.46074623 18.1125119 25.45670786 18.16485177 19.45268059 18.2205677 C17.15645753 18.24102452 14.86021823 18.25973196 12.56396675 18.27670097 C9.3598045 18.3006716 6.15575524 18.33073582 2.95166016 18.36230469 C1.51236397 18.37093788 1.51236397 18.37093788 0.04399109 18.37974548 C-1.25805771 18.39442871 -1.25805771 18.39442871 -2.58641052 18.40940857 C-3.72436396 18.4190874 -3.72436396 18.4190874 -4.88530636 18.42896175 C-6.64716489 18.38171254 -6.64716489 18.38171254 -7.61694336 19.56762695 C-7.72523057 21.22480689 -7.76379837 22.8865812 -7.77516174 24.54725647 C-7.78495056 25.62564285 -7.79473938 26.70402924 -7.80482483 27.81509399 C-7.81058029 29.00839325 -7.81633575 30.2016925 -7.82226562 31.43115234 C-7.83711502 33.30405693 -7.83711502 33.30405693 -7.8522644 35.21479797 C-7.87851581 38.64850853 -7.90035145 42.08219503 -7.92026639 45.51594472 C-7.9420876 49.10077915 -7.96949514 52.68557065 -7.99632263 56.27037048 C-8.04630195 63.06309625 -8.09122126 69.85584579 -8.134345 76.64861816 C-8.1836727 84.38008239 -8.23860734 92.11150354 -8.29402459 99.84292614 C-8.40792502 115.75111998 -8.51474641 131.65935337 -8.61694336 147.56762695 C-8.94694336 147.56762695 -9.27694336 147.56762695 -9.61694336 147.56762695 C-9.71035953 130.81723613 -9.78090911 114.06692972 -9.82419205 97.3163414 C-9.84482271 89.53884934 -9.87295274 81.76151908 -9.91870117 73.98413086 C-9.95855375 67.2058302 -9.98437251 60.42764671 -9.99329734 53.64923215 C-9.99851485 50.05961431 -10.01078775 46.47033169 -10.03986359 42.88082123 C-10.0720496 38.87490429 -10.07290381 34.86957116 -10.07104492 30.86352539 C-10.09261658 29.07572914 -10.09261658 29.07572914 -10.11462402 27.2518158 C-10.10912537 26.16089127 -10.10362671 25.06996674 -10.09796143 23.94598389 C-10.1016486 22.9983807 -10.10533577 22.05077751 -10.10913467 21.07445908 C-9.45935192 17.76498118 -8.2799844 16.58604648 -5.61694336 14.56762695 C-3.57863235 14.07543564 -3.57863235 14.07543564 -1.37750244 14.08660889 C-0.53900253 14.08111023 0.29949738 14.07561157 1.16340637 14.06994629 C2.53041939 14.09151794 2.53041939 14.09151794 3.92504883 14.11352539 C4.89123642 14.11294128 5.85742401 14.11235718 6.85289001 14.11175537 C10.04560303 14.11454149 13.23738178 14.14565911 16.42993164 14.17700195 C18.64381398 14.18446245 20.85770293 14.19015628 23.07159424 14.19415283 C28.89803302 14.20942412 34.72407284 14.24871927 40.550354 14.29296875 C46.4958354 14.33388894 52.44138126 14.35215693 58.38696289 14.37231445 C70.05250275 14.41521171 81.71774651 14.48348148 93.38305664 14.56762695 C93.38305664 10.60762695 93.38305664 6.64762695 93.38305664 2.56762695 C58.40305664 2.89762695 23.42305664 3.22762695 -12.61694336 3.56762695 C-13.27694336 4.88762695 -13.93694336 6.20762695 -14.61694336 7.56762695 C-16.61694336 9.81762695 -16.61694336 9.81762695 -18.61694336 11.56762695 C-19.27694336 11.56762695 -19.93694336 11.56762695 -20.61694336 11.56762695 C-20.61694336 13.21762695 -20.61694336 14.86762695 -20.61694336 16.56762695 C-21.27694336 16.56762695 -21.93694336 16.56762695 -22.61694336 16.56762695 C-22.50942814 32.41490076 -22.39661888 48.26212761 -22.2776041 64.10931873 C-22.22245832 71.46837164 -22.16900826 78.82742939 -22.11962891 86.18652344 C-22.07655728 92.60491041 -22.0302238 99.02326438 -21.98006481 105.44160002 C-21.95364749 108.83622167 -21.92880152 112.23083755 -21.90786934 115.62549782 C-21.8836104 119.42632168 -21.8535869 123.22706069 -21.82226562 127.02783203 C-21.81651016 128.13842484 -21.8107547 129.24901764 -21.80482483 130.39326477 C-22.03275159 147.58528085 -22.03275159 147.58528085 -14.61694336 162.56762695 C-17.08494383 161.4158934 -18.66477901 160.5197913 -20.61694336 158.56762695 C-21.31050759 156.24214689 -21.97843548 153.9088225 -22.61694336 151.56762695 C-22.94694336 151.23762695 -23.27694336 150.90762695 -23.61694336 150.56762695 C-23.72632387 148.82931557 -23.76548793 147.08655599 -23.77757263 145.34484863 C-23.78761826 144.21215546 -23.79766388 143.07946228 -23.80801392 141.91244507 C-23.81384491 140.65847931 -23.8196759 139.40451355 -23.82568359 138.11254883 C-23.83546738 136.80037384 -23.84525116 135.48819885 -23.85533142 134.13626099 C-23.88678415 129.76966325 -23.90700016 125.40304612 -23.92553711 121.03637695 C-23.92883443 120.29336397 -23.93213175 119.55035099 -23.93552899 118.78482246 C-23.96632851 111.77496941 -23.99303513 104.76511212 -24.00994778 97.75521088 C-24.03182335 88.79304902 -24.07370856 79.83148877 -24.14338535 70.86956739 C-24.19071537 64.56712672 -24.21489383 58.26484775 -24.22214466 51.96223497 C-24.22709029 48.19962557 -24.24206357 44.4376932 -24.28188896 40.67527771 C-24.31892589 37.1291844 -24.32711058 33.58414982 -24.31388283 30.03789902 C-24.31396196 28.12750468 -24.34370756 26.21718234 -24.37457275 24.30703735 C-24.29937347 15.34461148 -22.21752223 10.33473163 -16.03588676 3.92934132 C-11.15391018 -0.2290551 -6.17719514 -0.11384859 0 0 Z " fill="#A3A2A3" transform="translate(265.616943359375,128.432373046875)"/>
<path d="M0 0 C3.74573102 1.90543708 6.30745889 4.53155647 8.2109375 8.2734375 C9.43972493 12.21147914 9.33505341 16.28100303 8.859375 20.3515625 C7.859375 21.3515625 7.859375 21.3515625 5.45092773 21.46508789 C4.40880127 21.45985107 3.3666748 21.45461426 2.29296875 21.44921875 C1.16826172 21.44599609 0.04355469 21.44277344 -1.11523438 21.43945312 C-2.29923828 21.43107422 -3.48324219 21.42269531 -4.703125 21.4140625 C-5.89099609 21.40955078 -7.07886719 21.40503906 -8.30273438 21.40039062 C-11.24874726 21.38855925 -14.19466181 21.37207537 -17.140625 21.3515625 C-16.31411731 27.33371499 -16.31411731 27.33371499 -13.34765625 32.3984375 C-10.67008117 33.55477081 -8.74081409 33.68395823 -5.828125 33.6015625 C-4.86648438 33.57578125 -3.90484375 33.55 -2.9140625 33.5234375 C0.39983166 33.31806941 3.59135806 32.93254329 6.859375 32.3515625 C6.859375 34.0015625 6.859375 35.6515625 6.859375 37.3515625 C0.43711976 40.93607705 -5.88651304 41.30864016 -13.140625 40.3515625 C-17.47050886 38.71523003 -20.2581741 36.49020882 -23.078125 32.8515625 C-25.88351119 26.25065382 -26.43616689 17.86745139 -24.45703125 10.96875 C-19.85091883 0.91557516 -10.69606222 -3.24004805 0 0 Z " fill="#E2E1DE" transform="translate(1061.140625,107.6484375)"/>
<path d="M0 0 C3.50291793 2.73227599 5.80339919 5.20200825 7.125 9.4375 C7.4738374 12.80627257 7.51837898 16.07120777 7.125 19.4375 C6.125 20.4375 6.125 20.4375 3.71655273 20.55102539 C2.67442627 20.54578857 1.6322998 20.54055176 0.55859375 20.53515625 C-0.56611328 20.53193359 -1.69082031 20.52871094 -2.84960938 20.52539062 C-4.03361328 20.51701172 -5.21761719 20.50863281 -6.4375 20.5 C-7.62537109 20.49548828 -8.81324219 20.49097656 -10.03710938 20.48632812 C-12.98312226 20.47449675 -15.92903681 20.45801287 -18.875 20.4375 C-18.0454177 26.4068316 -18.0454177 26.4068316 -15.11328125 31.484375 C-12.27964592 32.69101901 -10.13864559 32.76647678 -7.0625 32.6875 C-6.00933594 32.66171875 -4.95617187 32.6359375 -3.87109375 32.609375 C-0.47478697 32.41454123 2.77977997 32.04572182 6.125 31.4375 C6.0625 33.75 6.0625 33.75 5.125 36.4375 C-0.74712695 40.22175959 -7.06072877 40.12082525 -13.875 39.4375 C-19.0902482 37.7306915 -21.73313081 34.88848136 -24.875 30.4375 C-27.86338125 24.17612976 -27.38394221 17.44025903 -26.25 10.75 C-24.17126601 5.74214084 -21.2173039 1.93397194 -16.625 -1 C-10.99019865 -2.152573 -5.27141097 -2.64706628 0 0 Z " fill="#E3E3DF" transform="translate(711.875,108.5625)"/>
<path d="M0 0 C5.28097404 1.79353835 7.79895251 4.60999202 11 9 C11.94738023 11.84214068 12.13460559 13.67608391 12.125 16.625 C12.12886719 17.81996094 12.12886719 17.81996094 12.1328125 19.0390625 C12 21 12 21 11 22 C9.07332493 22.08748207 7.14348139 22.10697334 5.21484375 22.09765625 C4.04501953 22.09443359 2.87519531 22.09121094 1.66992188 22.08789062 C0.43822266 22.07951172 -0.79347656 22.07113281 -2.0625 22.0625 C-3.91584961 22.05573242 -3.91584961 22.05573242 -5.80664062 22.04882812 C-8.87114117 22.03699608 -11.93554721 22.02051173 -15 22 C-14.57405412 23.44096586 -14.13373367 24.87768712 -13.6875 26.3125 C-13.44386719 27.11300781 -13.20023438 27.91351563 -12.94921875 28.73828125 C-11.94034115 31.1421501 -11.04038939 32.3960166 -9 34 C-6.26727905 34.40206151 -6.26727905 34.40206151 -3.25 34.25 C-2.1878125 34.22421875 -1.125625 34.1984375 -0.03125 34.171875 C3.37802097 33.97856582 6.64230614 33.61048979 10 33 C10 34.65 10 36.3 10 38 C3.56609666 41.59101582 -2.73394075 41.93292613 -10 41 C-14.64798712 39.41645865 -17.88271021 36.77281565 -20.5 32.625 C-23.32646319 25.9580958 -23.5253164 17.16961491 -21.046875 10.39453125 C-15.89990113 1.71308481 -9.70938491 -0.8078687 0 0 Z " fill="#E3E3DF" transform="translate(736,308)"/>
<path d="M0 0 C1.40378906 -0.02126953 1.40378906 -0.02126953 2.8359375 -0.04296875 C7.30375492 0.32622064 9.86876713 1.34724125 12.875 4.6875 C15.75829754 8.80649648 15.74316826 11.11810919 15.72265625 16.1640625 C15.7212413 16.84931 15.71982635 17.5345575 15.71836853 18.24057007 C15.71276675 20.43125761 15.70021406 22.6218433 15.6875 24.8125 C15.68248522 26.29687352 15.67792228 27.78124865 15.67382812 29.265625 C15.66279677 32.90628315 15.64553099 36.54688164 15.625 40.1875 C13.645 40.1875 11.665 40.1875 9.625 40.1875 C9.625 38.8675 9.625 37.5475 9.625 36.1875 C8.91537109 36.72890625 8.91537109 36.72890625 8.19140625 37.28125 C3.72344402 40.41666209 0.25596586 41.99276109 -5.2578125 41.6875 C-8.95062562 40.81539653 -10.78061906 38.91159999 -13.375 36.1875 C-15.23591735 32.4656653 -14.9430311 28.24030619 -14.375 24.1875 C-11.55756401 20.32358778 -8.86374042 18.62848769 -4.375 17.1875 C-1.04296875 16.9921875 -1.04296875 16.9921875 2.4375 17.0625 C4.17966797 17.08957031 4.17966797 17.08957031 5.95703125 17.1171875 C6.83746094 17.14039062 7.71789062 17.16359375 8.625 17.1875 C8.34372579 15.70632199 8.04966268 14.22756751 7.75 12.75 C7.58757813 11.92628906 7.42515625 11.10257813 7.2578125 10.25390625 C6.94457031 9.23103516 6.94457031 9.23103516 6.625 8.1875 C1.94979446 5.84989723 -4.60212019 6.77522791 -9.5 8.1875 C-10.44875 8.5175 -11.3975 8.8475 -12.375 9.1875 C-12.705 7.5375 -13.035 5.8875 -13.375 4.1875 C-8.75162281 1.31350877 -5.45378006 0.03735466 0 0 Z " fill="#E4E2DC" transform="translate(933.375,106.8125)"/>
<path d="M0 0 C2.62872237 1.84010566 3.90514133 2.97936543 5.5 5.75 C5.75630289 8.37145494 5.8506943 10.74526167 5.79296875 13.359375 C5.78872391 14.08618469 5.78447906 14.81299438 5.78010559 15.56182861 C5.7633613 17.87493504 5.72571885 20.18715855 5.6875 22.5 C5.67244758 24.07160197 5.65876015 25.64321764 5.64648438 27.21484375 C5.61347195 31.06023415 5.56172056 34.90496756 5.5 38.75 C3.52 38.75 1.54 38.75 -0.5 38.75 C-0.83 37.76 -1.16 36.77 -1.5 35.75 C-2.098125 36.224375 -2.69625 36.69875 -3.3125 37.1875 C-7.40204907 40.10860648 -11.62682049 40.27451051 -16.5 39.75 C-20.66636339 37.99086879 -22.74086879 35.91636339 -24.5 31.75 C-25.32072933 25.28675656 -25.32072933 25.28675656 -23.55078125 21.97265625 C-20.93782259 18.60136259 -18.50671436 16.97933281 -14.5 15.75 C-11.16796875 15.5546875 -11.16796875 15.5546875 -7.6875 15.625 C-5.94533203 15.65207031 -5.94533203 15.65207031 -4.16796875 15.6796875 C-3.28753906 15.70289063 -2.40710938 15.72609375 -1.5 15.75 C-1.62375 14.47125 -1.7475 13.1925 -1.875 11.875 C-1.94460938 11.15570313 -2.01421875 10.43640625 -2.0859375 9.6953125 C-2.36374749 7.52331755 -2.36374749 7.52331755 -4.5 5.75 C-7.03128425 5.43004272 -7.03128425 5.43004272 -9.875 5.5 C-10.83148437 5.49484375 -11.78796875 5.4896875 -12.7734375 5.484375 C-15.54453156 5.75433832 -17.082731 6.45393236 -19.5 7.75 C-20.49 7.75 -21.48 7.75 -22.5 7.75 C-22.5 5.77 -22.5 3.79 -22.5 1.75 C-15.04452653 -1.62606346 -7.86984007 -2.81065717 0 0 Z " fill="#E2E3E0" transform="translate(846.5,208.25)"/>
<path d="M0 0 C3.08394862 2.84047899 4.31643785 4.31832438 4.60205078 8.55737305 C4.60173499 9.93802878 4.59048717 11.31871039 4.5703125 12.69921875 C4.5674826 13.42744339 4.56465271 14.15566803 4.56173706 14.90596008 C4.55055257 17.22914137 4.52545166 19.55193547 4.5 21.875 C4.48996794 23.4511663 4.48084248 25.02733865 4.47265625 26.60351562 C4.45061896 30.46499267 4.41610141 34.32618071 4.375 38.1875 C2.395 38.1875 0.415 38.1875 -1.625 38.1875 C-1.955 37.1975 -2.285 36.2075 -2.625 35.1875 C-3.429375 35.8475 -4.23375 36.5075 -5.0625 37.1875 C-9.08436212 39.84972552 -12.94188764 40.03364374 -17.625 39.1875 C-21.4276029 37.1824912 -23.24290841 35.76063738 -25.625 32.1875 C-26.33612008 27.7719404 -26.213448 24.2286003 -24 20.3125 C-17.36283719 14.3739859 -11.15966677 14.84560682 -2.625 15.1875 C-2.74875 13.90875 -2.8725 12.63 -3 11.3125 C-3.06960938 10.59320313 -3.13921875 9.87390625 -3.2109375 9.1328125 C-3.48874749 6.96081755 -3.48874749 6.96081755 -5.625 5.1875 C-8.15628425 4.86754272 -8.15628425 4.86754272 -11 4.9375 C-11.95648437 4.93234375 -12.91296875 4.9271875 -13.8984375 4.921875 C-16.66953156 5.19183832 -18.207731 5.89143236 -20.625 7.1875 C-21.615 7.1875 -22.605 7.1875 -23.625 7.1875 C-23.875 4.875 -23.875 4.875 -23.625 2.1875 C-18.22294471 -3.21455529 -6.35658019 -4.12233665 0 0 Z " fill="#E0E2E0" transform="translate(745.625,208.8125)"/>
<path d="M0 0 C1.16781006 0.00523682 2.33562012 0.01047363 3.53881836 0.01586914 C4.79887695 0.0190918 6.05893555 0.02231445 7.35717773 0.02563477 C8.6976732 0.03399136 10.03816799 0.04245632 11.37866211 0.05102539 C12.72306153 0.05603879 14.06746271 0.06060197 15.41186523 0.06469727 C18.71334151 0.07653051 22.01473014 0.09301568 25.31616211 0.11352539 C25.35888311 1.77964444 25.35680043 3.44735424 25.31616211 5.11352539 C24.31616211 6.11352539 24.31616211 6.11352539 22.27490234 6.22705078 C21.400354 6.22181396 20.52580566 6.21657715 19.62475586 6.21118164 C18.68051758 6.20795898 17.7362793 6.20473633 16.76342773 6.20141602 C15.77020508 6.19303711 14.77698242 6.1846582 13.75366211 6.17602539 C12.75657227 6.17151367 11.75948242 6.16700195 10.73217773 6.16235352 C8.26014724 6.15052562 5.78814739 6.13258954 3.31616211 6.11352539 C3.31616211 11.39352539 3.31616211 16.67352539 3.31616211 22.11352539 C4.60393555 22.10192383 5.89170898 22.09032227 7.21850586 22.07836914 C8.89688983 22.06899269 10.57527537 22.05989234 12.25366211 22.05102539 C13.52886719 22.03845703 13.52886719 22.03845703 14.82983398 22.02563477 C15.6387207 22.02241211 16.44760742 22.01918945 17.28100586 22.01586914 C18.02987061 22.01063232 18.77873535 22.00539551 19.55029297 22 C21.31616211 22.11352539 21.31616211 22.11352539 22.31616211 23.11352539 C22.31616211 24.76352539 22.31616211 26.41352539 22.31616211 28.11352539 C16.04616211 28.11352539 9.77616211 28.11352539 3.31616211 28.11352539 C3.31616211 34.05352539 3.31616211 39.99352539 3.31616211 46.11352539 C10.57616211 46.11352539 17.83616211 46.11352539 25.31616211 46.11352539 C25.31616211 48.09352539 25.31616211 50.07352539 25.31616211 52.11352539 C21.34685222 52.1381842 17.37757177 52.15636562 13.40820312 52.16845703 C12.05695825 52.17349596 10.70571885 52.18032716 9.35449219 52.18896484 C7.41595777 52.20104958 5.47738411 52.20622367 3.53881836 52.21118164 C1.78710327 52.21903687 1.78710327 52.21903687 0 52.22705078 C-2.68383789 52.11352539 -2.68383789 52.11352539 -3.68383789 51.11352539 C-3.78230756 49.55353491 -3.81182407 47.98911995 -3.81323242 46.42602539 C-3.81638458 45.42829102 -3.81953674 44.43055664 -3.82278442 43.40258789 C-3.82076019 42.31719727 -3.81873596 41.23180664 -3.81665039 40.11352539 C-3.81760712 39.00750977 -3.81856384 37.90149414 -3.81954956 36.76196289 C-3.82023156 34.41821231 -3.81837593 32.07445986 -3.81420898 29.73071289 C-3.80886103 26.12910751 -3.81415336 22.52762686 -3.82055664 18.92602539 C-3.81989586 16.65519178 -3.81861471 14.38435825 -3.81665039 12.11352539 C-3.81867462 11.02813477 -3.82069885 9.94274414 -3.82278442 8.82446289 C-3.81963226 7.82672852 -3.8164801 6.82899414 -3.81323242 5.80102539 C-3.81243683 4.91801758 -3.81164124 4.03500977 -3.81082153 3.12524414 C-3.61366574 0.00183389 -3.15869839 0.13361182 0 0 Z " fill="#E8E8E3" transform="translate(649.683837890625,194.886474609375)"/>
<path d="M0 0 C2.31 0 4.62 0 7 0 C7.01458252 0.82201904 7.02916504 1.64403809 7.04418945 2.4909668 C7.11876333 6.22361323 7.21539512 9.95537459 7.3125 13.6875 C7.33505859 14.98107422 7.35761719 16.27464844 7.38085938 17.60742188 C7.41630859 18.85458984 7.45175781 20.10175781 7.48828125 21.38671875 C7.51446533 22.53358154 7.54064941 23.68044434 7.56762695 24.86206055 C8.04298156 28.31193787 8.88359013 30.25153443 11 33 C14.11237502 33.77809376 15.9349358 33.52315174 18.81567383 32.1081543 C22.16489878 29.7568562 23.77083239 28.05197957 24.65869141 23.97631836 C24.91387781 20.3436197 24.96974121 16.76636008 24.9375 13.125 C24.95361328 11.86429688 24.96972656 10.60359375 24.98632812 9.3046875 C25.02158573 6.20201787 25.02510869 3.10267165 25 0 C26.99954746 -0.04254356 29.00041636 -0.04080783 31 0 C32.81565436 1.81565436 32.12861899 4.31269962 32.13894653 6.72888184 C32.1369223 7.52991333 32.13489807 8.33094482 32.1328125 9.15625 C32.13376923 9.97371704 32.13472595 10.79118408 32.13571167 11.63342285 C32.13639345 13.36515378 32.13453929 15.09688724 32.13037109 16.82861328 C32.12502279 19.48866482 32.13031612 22.1485475 32.13671875 24.80859375 C32.13605797 26.48697954 32.1347768 28.16536523 32.1328125 29.84375 C32.13483673 30.64478149 32.13686096 31.44581299 32.13894653 32.27111816 C32.11495079 37.88504921 32.11495079 37.88504921 31 39 C29.00041636 39.04080783 26.99954746 39.04254356 25 39 C24.67 37.68 24.34 36.36 24 35 C22.824375 35.9590625 22.824375 35.9590625 21.625 36.9375 C17.69491417 40.02542458 15.22614413 40.3989241 10.32421875 40.3515625 C6.34720698 39.74999769 4.71646835 37.91523432 2 35 C-0.41502118 31.37387292 -0.23040392 28.10927809 -0.1953125 23.828125 C-0.1924826 23.1457074 -0.18965271 22.46328979 -0.18673706 21.76019287 C-0.17558098 19.58994693 -0.15048557 17.42012029 -0.125 15.25 C-0.11496426 13.77474556 -0.10583944 12.29948463 -0.09765625 10.82421875 C-0.07565687 7.21601058 -0.04115883 3.60804625 0 0 Z " fill="#E5E2D9" transform="translate(781,208)"/>
<path d="M0 0 C4.60914961 1.88556121 6.58756371 4.71851963 9 9 C9.45410156 12.52685547 9.45410156 12.52685547 9.390625 16.3671875 C9.38496521 17.04677521 9.37930542 17.72636292 9.37347412 18.42654419 C9.35125351 20.57677549 9.30109198 22.72528074 9.25 24.875 C9.22991614 26.3411216 9.21166868 27.80726958 9.1953125 29.2734375 C9.15143811 32.84951008 9.08251443 36.42458631 9 40 C6.69 40 4.38 40 2 40 C1.9906543 39.14245117 1.98130859 38.28490234 1.97167969 37.40136719 C1.92758709 34.21027321 1.86593944 31.02013244 1.79248047 27.82958984 C1.76430901 26.45048349 1.74307528 25.07121682 1.72900391 23.69189453 C1.70752455 21.70577051 1.65876868 19.72000091 1.609375 17.734375 C1.58842773 16.54038086 1.56748047 15.34638672 1.54589844 14.11621094 C0.89926814 10.42498147 0.00885772 9.18273797 -3 7 C-6.95397109 7 -9.31341716 7.57569668 -12.6784668 9.65527344 C-15.69062472 12.69752443 -15.64936563 14.28681289 -15.70703125 18.515625 C-15.73603516 19.76601562 -15.76503906 21.01640625 -15.79492188 22.3046875 C-15.80072266 23.60664063 -15.80652344 24.90859375 -15.8125 26.25 C-15.83763672 27.56742188 -15.86277344 28.88484375 -15.88867188 30.2421875 C-15.9476013 33.49509156 -15.98384097 36.74664795 -16 40 C-17.99954746 40.04254356 -20.00041636 40.04080783 -22 40 C-23 39 -23 39 -23.11352539 35.39819336 C-23.11336625 33.79540144 -23.10767063 32.1926044 -23.09765625 30.58984375 C-23.0962413 29.74780899 -23.09482635 28.90577423 -23.09336853 28.03822327 C-23.08775263 25.33794665 -23.07519748 22.63775172 -23.0625 19.9375 C-23.05748705 18.11132932 -23.05292379 16.28515734 -23.04882812 14.45898438 C-23.03777804 9.97262458 -23.02050279 5.48632616 -23 1 C-20.69 1 -18.38 1 -16 1 C-15.67 2.32 -15.34 3.64 -15 5 C-14.21625 4.360625 -13.4325 3.72125 -12.625 3.0625 C-8.47313201 -0.199682 -5.19175178 -0.54018227 0 0 Z " fill="#DDE1E0" transform="translate(983,107)"/>
<path d="M0 0 C5.02955522 2.4216377 6.90936318 4.90814792 9 10 C9.34057617 13.43505859 9.34057617 13.43505859 9.29296875 17.1484375 C9.28872391 17.80582916 9.28447906 18.46322083 9.28010559 19.14053345 C9.26344977 21.21912391 9.2258262 23.29670774 9.1875 25.375 C9.17243605 26.79295464 9.15875065 28.21092464 9.14648438 29.62890625 C9.11359038 33.0862589 9.06190165 36.54303103 9 40 C6.69 40 4.38 40 2 40 C1.98018066 39.17274414 1.96036133 38.34548828 1.93994141 37.49316406 C1.84468788 33.74512194 1.73500891 29.99763683 1.625 26.25 C1.5940625 24.94804687 1.563125 23.64609375 1.53125 22.3046875 C1.49257813 21.05429688 1.45390625 19.80390625 1.4140625 18.515625 C1.36693115 16.78747559 1.36693115 16.78747559 1.31884766 15.02441406 C1.01331963 12.12634273 0.59957694 10.40895861 -1 8 C-3.90295805 6.54852097 -5.77261779 6.62760975 -9 7 C-12.03067162 8.56797775 -13.21345037 9.21107329 -15 12 C-15.904027 16.76376262 -15.88464176 21.4747475 -15.875 26.3125 C-15.895625 27.62541016 -15.91625 28.93832031 -15.9375 30.29101562 C-15.98458308 33.52797708 -16.00444196 36.76276616 -16 40 C-18.31 40 -20.62 40 -23 40 C-23 27.13 -23 14.26 -23 1 C-21.02 1 -19.04 1 -17 1 C-17 2.65 -17 4.3 -17 6 C-16.34 6 -15.68 6 -15 6 C-15 5.34 -15 4.68 -15 4 C-10.28780522 -0.10806724 -6.1817732 -1.08568777 0 0 Z " fill="#E3E3DC" transform="translate(977,207)"/>
<path d="M0 0 C4.79852616 1.72022636 6.83388574 3.42065195 9 8 C9.34057617 11.50512695 9.34057617 11.50512695 9.29296875 15.48828125 C9.28872391 16.19147995 9.28447906 16.89467865 9.28010559 17.6191864 C9.2634006 19.85069131 9.22576614 22.08127113 9.1875 24.3125 C9.17244248 25.8313671 9.15875594 27.35024846 9.14648438 28.86914062 C9.11352473 32.57972434 9.06180016 36.28977178 9 40 C7.02 40 5.04 40 3 40 C2.9906543 39.17798096 2.98130859 38.35596191 2.97167969 37.5090332 C2.91792129 33.77625038 2.83428169 30.04471319 2.75 26.3125 C2.73582031 25.01892578 2.72164062 23.72535156 2.70703125 22.39257812 C2.67480469 21.14541016 2.64257812 19.89824219 2.609375 18.61328125 C2.58842773 17.46641846 2.56748047 16.31955566 2.54589844 15.13793945 C1.89068162 11.37161488 0.69321761 9.67326102 -2 7 C-5.89198571 6.15391615 -7.62198149 6.80205747 -11.140625 8.64453125 C-13.51926062 10.70842333 -13.97977383 11.89354285 -14.57666016 15.03515625 C-14.81688085 18.80461508 -14.88252769 22.53548361 -14.875 26.3125 C-14.895625 27.62541016 -14.91625 28.93832031 -14.9375 30.29101562 C-14.98458308 33.52797708 -15.00444196 36.76276616 -15 40 C-17.31 40 -19.62 40 -22 40 C-22 27.13 -22 14.26 -22 1 C-20.02 1 -18.04 1 -16 1 C-15.67 2.32 -15.34 3.64 -15 5 C-14.01 4.175 -13.02 3.35 -12 2.5 C-7.75195254 -0.52083375 -5.14770102 -0.65367632 0 0 Z " fill="#E7E4DD" transform="translate(967,308)"/>
<path d="M0 0 C4.13689857 3.56232932 5.11925754 7.5647042 5.625 12.875 C5.43014012 17.22969475 4.41496071 21.14008908 2.25 24.9375 C-1.08744766 27.98888071 -4.41814072 28.53869389 -8.8203125 28.34765625 C-12.30475682 27.60703549 -13.71981594 25.7439309 -15.75 22.9375 C-18.22083297 17.20965994 -17.99084726 11.93831872 -16.75 5.9375 C-15.46676636 3.00439454 -14.53352329 1.52514247 -12 -0.375 C-7.76144423 -1.67011426 -4.12986827 -1.59563092 0 0 Z " fill="#252423" transform="translate(804.75,114.0625)"/>
<path d="M0 0 C3.52488367 1.96667329 5.70121477 4.10364431 7 8 C8.00676527 20.36175711 8.00676527 20.36175711 5.1875 24.6875 C2.12534336 27.92463702 0.62252024 28.93975611 -3.875 29.375 C-7.05440343 29.29317712 -8.03293521 28.97995248 -10.875 27.25 C-15.55886085 22.29061792 -15.42088246 17.7697134 -15.32421875 11.14453125 C-14.8825329 6.86071065 -13.93212141 5.0996712 -11 2 C-7.30751438 -0.46165708 -4.28488597 -0.80846905 0 0 Z " fill="#252222" transform="translate(921,314)"/>
<path d="M0 0 C2.79733245 1.2162315 4.40364541 2.11906918 6.11328125 4.64453125 C7.35955023 7.95510481 7.30200981 10.90929861 7.3125 14.4375 C7.32925781 15.73558594 7.34601562 17.03367188 7.36328125 18.37109375 C6.98518218 22.14801883 6.25638907 23.99889139 4 27 C1.01129472 29.32454855 -2.30003326 29.47714072 -6.03515625 29.38671875 C-9.43645719 28.71727781 -10.9511386 26.6514677 -13 24 C-15.69731154 19.46662377 -15.51419925 15.14199246 -15 10 C-14.11115952 6.50951693 -12.69874729 3.80226541 -10.3125 1.0625 C-6.89242695 -0.50888492 -3.65701191 -0.5380097 0 0 Z " fill="#252321" transform="translate(930,213)"/>
<path d="M0 0 C2.8125 -0.3125 2.8125 -0.3125 6 0 C9.33126828 4.24607252 10.54557539 9.46858182 12.0625 14.5625 C12.57108953 16.25224709 13.08270583 17.94108676 13.59765625 19.62890625 C13.81945557 20.37213135 14.04125488 21.11535645 14.26977539 21.88110352 C15.01203256 24.03491493 15.93682532 25.98773494 17 28 C19.68594707 21.35265614 22.29044843 14.67688484 24.8515625 7.98046875 C25.88001823 5.31138125 26.93093812 2.65303888 28 0 C29.98 0 31.96 0 34 0 C34.20841974 4.33260429 33.75827428 7.20243161 31.9375 11.125 C29.01045959 17.75906579 26.65918505 24.54650961 24.32397461 31.40869141 C24.03659424 32.24706543 23.74921387 33.08543945 23.453125 33.94921875 C23.19692383 34.70549561 22.94072266 35.46177246 22.67675781 36.2409668 C22 38 22 38 21 39 C18.32941149 39.14115161 15.67567762 39.04247107 13 39 C10.14580765 32.16672773 7.62943199 25.23332543 5.19482422 18.24243164 C4.95393066 17.55141357 4.71303711 16.86039551 4.46484375 16.1484375 C4.22749512 15.46491211 3.99014648 14.78138672 3.74560547 14.07714844 C2.97904215 11.94161447 2.14899807 9.83709731 1.31640625 7.7265625 C0 4 0 4 0 0 Z " fill="#E1E2DD" transform="translate(681,208)"/>
<path d="M0 0 C0.7734375 -0.00515625 1.546875 -0.0103125 2.34375 -0.015625 C4.5 0.25 4.5 0.25 7.5 2.25 C7.17 3.9 6.84 5.55 6.5 7.25 C3.53 7.25 0.56 7.25 -2.5 7.25 C-3.64814997 9.54629994 -3.80769809 11.32698086 -4.0625 13.875 C-4.2790625 16.040625 -4.2790625 16.040625 -4.5 18.25 C-1.53 18.25 1.44 18.25 4.5 18.25 C4.83 19.9 5.16 21.55 5.5 23.25 C2.2 23.25 -1.1 23.25 -4.5 23.25 C-4.5 34.47 -4.5 45.69 -4.5 57.25 C-6.81 57.25 -9.12 57.25 -11.5 57.25 C-11.5 46.36 -11.5 35.47 -11.5 24.25 C-13.15 24.25 -14.8 24.25 -16.5 24.25 C-17.5 23.25 -17.5 23.25 -17.5625 20.6875 C-17.541875 19.883125 -17.52125 19.07875 -17.5 18.25 C-15.52 18.25 -13.54 18.25 -11.5 18.25 C-11.54640625 17.59773438 -11.5928125 16.94546875 -11.640625 16.2734375 C-11.88506001 10.35461838 -11.56978448 6.90118227 -7.5 2.25 C-4.377998 0.16866533 -3.56733011 -0.0237822 0 0 Z " fill="#DCE0E0" transform="translate(770.5,89.75)"/>
<path d="M0 0 C5.02941176 2.02941176 5.02941176 2.02941176 7 4 C7.04080783 5.99958364 7.04254356 8.00045254 7 10 C4.83264747 9.53556732 3.1100283 9.06449935 1.1875 7.9375 C-2.08498281 6.53500737 -4.47979819 6.56769451 -8 7 C-11.67412878 9.76759483 -12.87776474 11.21512094 -13.59375 15.8125 C-13.58848142 17.20867316 -13.55662501 18.60496564 -13.5 20 C-13.50257813 20.69867188 -13.50515625 21.39734375 -13.5078125 22.1171875 C-13.42418081 26.54966703 -12.71804814 29.48252594 -10 33 C-6.89046621 34.5547669 -4.43733239 34.28644437 -1 34 C2.27310553 32.09643013 2.27310553 32.09643013 5 30 C5.66 30 6.32 30 7 30 C7.3125 32.75 7.3125 32.75 7 36 C3.07911772 39.92088228 -0.36426422 41.15348851 -5.8125 41.3125 C-10.67756573 41.2416839 -13.34222335 40.39650689 -17 37 C-22.18639214 29.81242762 -22.78814675 22.64741291 -22 14 C-20.2875671 8.02116285 -16.96379294 4.56098189 -12 1 C-8.31480855 -0.84259573 -4.03082782 -0.36419424 0 0 Z " fill="#E1E1DD" transform="translate(839,308)"/>
<path d="M0 0 C5.02941176 2.02941176 5.02941176 2.02941176 7 4 C7.04080783 5.99958364 7.04254356 8.00045254 7 10 C4.83264747 9.53556732 3.1100283 9.06449935 1.1875 7.9375 C-2.08498281 6.53500737 -4.47979819 6.56769451 -8 7 C-11.67412878 9.76759483 -12.87776474 11.21512094 -13.59375 15.8125 C-13.58848142 17.20867316 -13.55662501 18.60496564 -13.5 20 C-13.50257813 20.69867188 -13.50515625 21.39734375 -13.5078125 22.1171875 C-13.42418081 26.54966703 -12.71804814 29.48252594 -10 33 C-6.89046621 34.5547669 -4.43733239 34.28644437 -1 34 C2.27310553 32.09643013 2.27310553 32.09643013 5 30 C5.66 30 6.32 30 7 30 C7.3125 32.75 7.3125 32.75 7 36 C3.07911772 39.92088228 -0.36426422 41.15348851 -5.8125 41.3125 C-10.67756573 41.2416839 -13.34222335 40.39650689 -17 37 C-22.18639214 29.81242762 -22.78814675 22.64741291 -22 14 C-20.2875671 8.02116285 -16.96379294 4.56098189 -12 1 C-8.31480855 -0.84259573 -4.03082782 -0.36419424 0 0 Z " fill="#E1E1DD" transform="translate(1023,107)"/>
<path d="M0 0 C2.31 0 4.62 0 7 0 C7 3.3 7 6.6 7 10 C10.63 10 14.26 10 18 10 C18 11.65 18 13.3 18 15 C14.37 15 10.74 15 7 15 C7.11360633 19.10477592 7.24036599 23.20840664 7.375 27.3125 C7.4059375 28.47974609 7.436875 29.64699219 7.46875 30.84960938 C7.50742187 31.96787109 7.54609375 33.08613281 7.5859375 34.23828125 C7.6173584 35.26993408 7.6487793 36.30158691 7.68115234 37.36450195 C7.82674629 40.22843236 7.82674629 40.22843236 10 43 C11.97747122 43.36297936 11.97747122 43.36297936 14.125 43.1875 C15.40375 43.125625 16.6825 43.06375 18 43 C18.1875 45.375 18.1875 45.375 18 48 C14.43067411 50.37955059 12.41265019 50.52911482 8.2265625 50.4609375 C5.57653589 49.9123355 4.71547495 49.18156354 3 47.125 C0.30461869 42.91346671 -0.12178638 41.08799386 -0.09765625 36.1171875 C-0.09443359 34.95058594 -0.09121094 33.78398437 -0.08789062 32.58203125 C-0.07951172 31.35871094 -0.07113281 30.13539063 -0.0625 28.875 C-0.05798828 27.64394531 -0.05347656 26.41289062 -0.04882812 25.14453125 C-0.0370133 22.09630608 -0.02054028 19.04817686 0 16 C-0.804375 16.020625 -1.60875 16.04125 -2.4375 16.0625 C-5 16 -5 16 -6 15 C-6.04063832 13.33382885 -6.042721 11.66611905 -6 10 C-4.02 10 -2.04 10 0 10 C0 6.7 0 3.4 0 0 Z " fill="#DEE1E0" transform="translate(856,299)"/>
<path d="M0 0 C3.40042586 1.3136454 5.20951309 2.80670996 7 6 C7.61355796 8.8583004 7.7611799 11.64436503 7.8125 14.5625 C7.83618652 15.30685303 7.85987305 16.05120605 7.88427734 16.81811523 C7.80948513 19.94715571 7.71178887 22.13634182 5.67724609 24.60498047 C2.66640471 27.15910574 0.0725972 28.83315155 -3.8125 29.4375 C-7 29 -7 29 -9.8125 26.375 C-12.05175517 23.30320125 -12.76985726 20.83571242 -13 17 C-13.05027344 16.35804688 -13.10054687 15.71609375 -13.15234375 15.0546875 C-13.37919327 10.28177358 -12.67240245 7.10404662 -10 3 C-6.8819151 -0.22560507 -4.40418028 -0.77720828 0 0 Z " fill="#262323" transform="translate(775,314)"/>
<path d="M0 0 C1.98 0 3.96 0 6 0 C6 3.3 6 6.6 6 10 C9.63 10 13.26 10 17 10 C17 11.65 17 13.3 17 15 C13.37 15 9.74 15 6 15 C6.11380498 18.91728722 6.24056338 22.83341307 6.375 26.75 C6.4059375 27.86117187 6.436875 28.97234375 6.46875 30.1171875 C6.50742187 31.18710938 6.54609375 32.25703125 6.5859375 33.359375 C6.6173584 34.34389648 6.6487793 35.32841797 6.68115234 36.34277344 C7.00102258 39.00852201 7.64368621 40.70616405 9 43 C11.64 43 14.28 43 17 43 C17 44.98 17 46.96 17 49 C13.28985899 50.23671367 9.85561242 50.56368603 6 50 C3.1899654 48.20636089 1.49059532 46.98119065 0 44 C-0.08559118 41.82175039 -0.10713412 39.64084745 -0.09765625 37.4609375 C-0.09282227 35.50800781 -0.09282227 35.50800781 -0.08789062 33.515625 C-0.07953466 32.13541601 -0.07106971 30.75520768 -0.0625 29.375 C-0.05748501 27.98698074 -0.0529221 26.59895978 -0.04882812 25.2109375 C-0.03700976 21.80724868 -0.02053434 18.40364561 0 15 C-2.31 15 -4.62 15 -7 15 C-7 13.35 -7 11.7 -7 10 C-4.69 10 -2.38 10 0 10 C0 6.7 0 3.4 0 0 Z " fill="#E9E8E5" transform="translate(866,198)"/>
<path d="M0 0 C2.31 0 4.62 0 7 0 C7 18.48 7 36.96 7 56 C4.69 56 2.38 56 0 56 C0 37.52 0 19.04 0 0 Z " fill="#E2E3DE" transform="translate(762,191)"/>
<path d="M0 0 C0.66 0.33 1.32 0.66 2 1 C2 2.98 2 4.96 2 7 C0.01432292 6.96744792 -1.97135417 6.93489583 -3.95703125 6.90234375 C-6.20305461 6.91736783 -6.20305461 6.91736783 -9 8 C-10.15521502 10.47130918 -10.15521502 10.47130918 -11 13 C-11.33 13.33 -11.66 13.66 -12 14 C-12.15806531 15.92478813 -12.251135 17.8549921 -12.31640625 19.78515625 C-12.35830078 20.95498047 -12.40019531 22.12480469 -12.44335938 23.33007812 C-12.48267578 24.56177734 -12.52199219 25.79347656 -12.5625 27.0625 C-12.62727539 28.91584961 -12.62727539 28.91584961 -12.69335938 30.80664062 C-12.79984198 33.87097335 -12.90185424 36.93539073 -13 40 C-15.31 40 -17.62 40 -20 40 C-20 27.13 -20 14.26 -20 1 C-18.02 1 -16.04 1 -14 1 C-13.67 2.65 -13.34 4.3 -13 6 C-12.071875 4.7934375 -12.071875 4.7934375 -11.125 3.5625 C-7.67589349 -0.59671667 -5.25871657 -0.18781131 0 0 Z " fill="#DEE1E0" transform="translate(846,107)"/>
<path d="M0 0 C1 1 1 1 1.0625 4.0625 C1.041875 5.031875 1.02125 6.00125 1 7 C-0.051875 6.896875 -1.10375 6.79375 -2.1875 6.6875 C-6.13980992 6.63902732 -6.13980992 6.63902732 -8.875 9.4375 C-9.57625 10.283125 -10.2775 11.12875 -11 12 C-11.33 12.33 -11.66 12.66 -12 13 C-12.15825258 14.99782126 -12.25119171 17.00088834 -12.31640625 19.00390625 C-12.35830078 20.21884766 -12.40019531 21.43378906 -12.44335938 22.68554688 C-12.48267578 23.96494141 -12.52199219 25.24433594 -12.5625 26.5625 C-12.60568359 27.84576172 -12.64886719 29.12902344 -12.69335938 30.45117188 C-12.799848 33.63399853 -12.90185962 36.81690674 -13 40 C-15.31 40 -17.62 40 -20 40 C-20 27.13 -20 14.26 -20 1 C-18.02 1 -16.04 1 -14 1 C-13.67 2.32 -13.34 3.64 -13 5 C-12.154375 4.175 -11.30875 3.35 -10.4375 2.5 C-7.03047169 -0.37163814 -4.44731174 -0.52321315 0 0 Z " fill="#E6E3DA" transform="translate(708,308)"/>
<path d="M0 0 C1 1 1 1 1.0625 4.0625 C1.041875 5.031875 1.02125 6.00125 1 7 C-0.051875 6.896875 -1.10375 6.79375 -2.1875 6.6875 C-6.13980992 6.63902732 -6.13980992 6.63902732 -8.875 9.4375 C-9.57625 10.283125 -10.2775 11.12875 -11 12 C-11.33 12.33 -11.66 12.66 -12 13 C-12.15825258 14.99782126 -12.25119171 17.00088834 -12.31640625 19.00390625 C-12.35830078 20.21884766 -12.40019531 21.43378906 -12.44335938 22.68554688 C-12.48267578 23.96494141 -12.52199219 25.24433594 -12.5625 26.5625 C-12.60568359 27.84576172 -12.64886719 29.12902344 -12.69335938 30.45117188 C-12.799848 33.63399853 -12.90185962 36.81690674 -13 40 C-15.31 40 -17.62 40 -20 40 C-20 27.13 -20 14.26 -20 1 C-18.02 1 -16.04 1 -14 1 C-13.67 2.32 -13.34 3.64 -13 5 C-12.154375 4.175 -11.30875 3.35 -10.4375 2.5 C-7.03047169 -0.37163814 -4.44731174 -0.52321315 0 0 Z " fill="#E6E3DA" transform="translate(749,107)"/>
<path d="M0 0 C12.05526992 -0.43573265 12.05526992 -0.43573265 16 3 C18.51250583 6.76875875 18.53016086 8.53150134 18 13 C16.21847933 15.97361628 14.14692775 18.42653612 11 20 C7.32984725 20.1377685 3.67388652 20.04271961 0 20 C0 13.4 0 6.8 0 0 Z " fill="#272224" transform="translate(653,302)"/>
<path d="M0 0 C12.05526992 -0.43573265 12.05526992 -0.43573265 16 3 C18.51250583 6.76875875 18.53016086 8.53150134 18 13 C16.21847933 15.97361628 14.14692775 18.42653612 11 20 C7.32984725 20.1377685 3.67388652 20.04271961 0 20 C0 13.4 0 6.8 0 0 Z " fill="#272224" transform="translate(653,101)"/>
<path d="M0 0 C-3.0285419 1.00951397 -5.04005342 1.121045 -8.20581055 1.11352539 C-9.81933411 1.11334412 -9.81933411 1.11334412 -11.4654541 1.11315918 C-12.59447144 1.10804321 -13.72348877 1.10292725 -14.88671875 1.09765625 C-15.92558228 1.09664917 -16.9644458 1.09564209 -18.03479004 1.09460449 C-21.91903791 1.0893687 -25.80327005 1.07540745 -29.6875 1.0625 C-38.370625 1.041875 -47.05375 1.02125 -56 1 C-56 19.15 -56 37.3 -56 56 C-51.71 56 -47.42 56 -43 56 C-43 42.47 -43 28.94 -43 15 C-27.875 14.5625 -27.875 14.5625 -23.19873047 14.43188477 C-6.11186316 14.53509369 -6.11186316 14.53509369 10 10 C10.99 10.33 11.98 10.66 13 11 C5.32430462 15.51511493 0.06147056 17.29637545 -8.89453125 17.1953125 C-9.84188644 17.1924826 -10.78924164 17.18965271 -11.76530457 17.18673706 C-14.78116666 17.17557187 -17.79672816 17.15047389 -20.8125 17.125 C-22.86132383 17.11496547 -24.91015232 17.10584045 -26.95898438 17.09765625 C-31.97286429 17.07734892 -36.98609698 17.03819308 -42 17 C-42 30.2 -42 43.4 -42 57 C-46.95 57 -51.9 57 -57 57 C-57 38.19 -57 19.38 -57 0 C-48.3375 -0.185625 -39.675 -0.37125 -30.75 -0.5625 C-26.65416504 -0.65446655 -26.65416504 -0.65446655 -22.47558594 -0.74829102 C-20.3118576 -0.79225704 -18.14812109 -0.83582281 -15.984375 -0.87890625 C-14.86047363 -0.90561401 -13.73657227 -0.93232178 -12.57861328 -0.95983887 C-11.50305176 -0.98026245 -10.42749023 -1.00068604 -9.31933594 -1.02172852 C-8.38667908 -1.04171402 -7.45402222 -1.06169952 -6.49310303 -1.08229065 C-4.16393489 -1.00541105 -2.22493227 -0.66531754 0 0 Z " fill="#878686" transform="translate(138,238)"/>
<path d="M0 0 C2.31 0 4.62 0 7 0 C7 12.87 7 25.74 7 39 C4.69 39 2.38 39 0 39 C0 26.13 0 13.26 0 0 Z " fill="#DDE3E1" transform="translate(882,309)"/>
<path d="M0 0 C2.31 0 4.62 0 7 0 C7 12.87 7 25.74 7 39 C4.69 39 2.38 39 0 39 C0 26.13 0 13.26 0 0 Z " fill="#E5E3D9" transform="translate(801,309)"/>
<path d="M0 0 C4.54045805 3.68993997 8.33549813 7.44413281 12 12 C13.31543863 13.35099103 14.64175118 14.69205669 16 16 C10.48221129 19.28719327 6.45440894 20.84647986 0 20 C-2.8100346 18.20636089 -4.50940468 16.98119065 -6 14 C-6.5811138 6.91041162 -6.5811138 6.91041162 -4.125 3.0625 C-2 1 -2 1 0 0 Z " fill="#262425" transform="translate(1028,222)"/>
<path d="M0 0 C1.98 0 3.96 0 6 0 C6 12.87 6 25.74 6 39 C4.02 39 2.04 39 0 39 C0 26.13 0 13.26 0 0 Z " fill="#ECEAE8" transform="translate(892,208)"/>
<path d="M0 0 C16.5 0 33 0 50 0 C50 0.33 50 0.66 50 1 C33.83 1 17.66 1 1 1 C1 25.75 1 50.5 1 76 C13.3440625 75.7834375 13.3440625 75.7834375 25.9375 75.5625 C28.51812256 75.51939697 31.09874512 75.47629395 33.75756836 75.43188477 C35.82666627 75.39372177 37.8957585 75.35524931 39.96484375 75.31640625 C41.01998169 75.29993042 42.07511963 75.28345459 43.16223145 75.26647949 C49.17303866 75.14919887 55.03593787 74.76420495 61 74 C61 73.34 61 72.68 61 72 C62.609375 70.81640625 62.609375 70.81640625 64.75 69.5625 C67.62727259 67.83817706 70.36522337 66.08586484 73 64 C70.87725086 68.73536346 68.57004661 70.7149767 64 73 C63.67 73.66 63.34 74.32 63 75 C59.28585149 76.88022908 56.23796551 77.2450456 52.1081543 77.22705078 C50.93119995 77.22680908 49.75424561 77.22656738 48.54162598 77.22631836 C47.31488159 77.21608643 46.08813721 77.20585449 44.82421875 77.1953125 C43.68907837 77.19329834 42.55393799 77.19128418 41.38439941 77.18920898 C37.15205839 77.1787605 32.91977505 77.15083793 28.6875 77.125 C19.220625 77.08375 9.75375 77.0425 0 77 C0 51.59 0 26.18 0 0 Z " fill="#797879" transform="translate(81,153)"/>
<path d="M0 0 C2.3125 1.625 2.3125 1.625 4 4 C4.33 6.31 4.66 8.62 5 11 C-1.6 11 -8.2 11 -15 11 C-13.96700133 4.80200795 -13.54430209 3.78691841 -9 0 C-5.41563853 -1.19478716 -3.63093708 -0.96330984 0 0 Z " fill="#2C2A29" transform="translate(736,314)"/>
<path d="M0 0 C2.69990662 1.79993774 4.5418865 3.083773 6 6 C6 7.98 6 9.96 6 12 C-0.27 12 -6.54 12 -13 12 C-13 6 -13 6 -10.625 3.1875 C-6.87161487 0.05967906 -4.8883793 -0.47925287 0 0 Z " fill="#2B292B" transform="translate(1057,112)"/>
<path d="M0 0 C0.7734375 -0.01675781 1.546875 -0.03351563 2.34375 -0.05078125 C5.03027136 0.4018392 5.91027714 1.12536537 7.5 3.3125 C7.63637116 6.92633576 7.40066033 9.2808763 4.96875 12.06640625 C2.18934919 14.51015908 0.04053027 16.13232324 -3.5 17.3125 C-7.04406048 11.99640928 -8.26065248 8.72371373 -7.5 2.3125 C-4.40219052 0.24729368 -3.5459519 0.01772976 0 0 Z " fill="#252528" transform="translate(1034.5,196.6875)"/>
<path d="M0 0 C2.5 2.1875 2.5 2.1875 4 5 C4 6.98 4 8.96 4 11 C-2.27 11 -8.54 11 -15 11 C-13.86341463 3.04390244 -13.86341463 3.04390244 -10 0 C-6.72154211 -1.63922894 -3.40869581 -0.97680018 0 0 Z " fill="#292728" transform="translate(708,113)"/>
<path d="M0 0 C0.79921875 0.00902344 1.5984375 0.01804688 2.421875 0.02734375 C3.02515625 0.03894531 3.6284375 0.05054688 4.25 0.0625 C5.1481289 7.69659563 5.1481289 7.69659563 3.125 10.7734375 C0.60836951 13.04102643 -1.56406764 14.02903218 -4.875 14.625 C-8.47639431 13.92037938 -9.68127298 13.08602411 -11.75 10.0625 C-12.21226472 6.82664698 -12.38276496 4.98000919 -10.5 2.25 C-7.21258765 0.01925591 -3.88682001 -0.05715912 0 0 Z " fill="#2A2524" transform="translate(840.75,228.9375)"/>
<path d="M0 0 C1.50433594 0.01353516 1.50433594 0.01353516 3.0390625 0.02734375 C3.80992187 0.03894531 4.58078125 0.05054688 5.375 0.0625 C5.66852352 3.11514456 5.7845865 6.01685678 5.375 9.0625 C2.72726295 12.27187824 0.82190137 12.94489438 -3.1875 14 C-6.625 14.0625 -6.625 14.0625 -9.0625 13.0625 C-10.625 11.0625 -10.625 11.0625 -11.0625 7.5625 C-10.625 4.0625 -10.625 4.0625 -9.25 2.1875 C-6.0283027 -0.04290583 -3.88929035 -0.04522431 0 0 Z " fill="#262628" transform="translate(936.625,128.9375)"/>
<path d="M0 0 C0.29352352 3.05264456 0.4095865 5.95435678 0 9 C-2.6385663 12.19826218 -4.58496706 12.88349953 -8.5625 14 C-12 14 -12 14 -14.4375 12.4375 C-16.47208082 9.26355393 -16.77043977 7.6981109 -16 4 C-11.21572124 -0.78427876 -6.33189482 -0.45049054 0 0 Z " fill="#2A2522" transform="translate(743,229)"/>
<path d="M0 0 C1.33332095 2.6666419 0.67102033 4.16680303 0 7 C-0.66 7 -1.32 7 -2 7 C-1.89248478 22.8472738 -1.77967552 38.69450066 -1.66066074 54.54169178 C-1.60551496 61.90074469 -1.5520649 69.25980244 -1.50268555 76.61889648 C-1.45961393 83.03728346 -1.41328044 89.45563743 -1.36312145 95.87397307 C-1.33670413 99.26859471 -1.31185816 102.6632106 -1.29092598 106.05787086 C-1.26666704 109.85869472 -1.23664354 113.65943374 -1.20532227 117.46020508 C-1.1995668 118.57079788 -1.19381134 119.68139069 -1.18788147 120.82563782 C-1.41580823 138.01765389 -1.41580823 138.01765389 6 153 C3.53199953 151.84826645 1.95216435 150.95216435 0 149 C-0.69356423 146.67451993 -1.36149212 144.34119555 -2 142 C-2.33 141.67 -2.66 141.34 -3 141 C-3.10285068 139.25249971 -3.13521113 137.50082172 -3.14044189 135.75030518 C-3.14615204 134.61183136 -3.15186218 133.47335754 -3.15774536 132.30038452 C-3.15886322 131.04013458 -3.15998108 129.77988464 -3.16113281 128.48144531 C-3.16609772 127.16284515 -3.17106262 125.844245 -3.17617798 124.48568726 C-3.18932748 120.85742781 -3.19575226 117.22918689 -3.20018864 113.60090733 C-3.20311617 111.33495648 -3.20722044 109.06901073 -3.21169281 106.80306244 C-3.22537646 99.71612357 -3.23503801 92.62919632 -3.2388947 85.54224515 C-3.24337322 77.35693904 -3.26090781 69.17180012 -3.2898953 60.98654485 C-3.31151045 54.66377776 -3.32159894 48.34105769 -3.32293582 42.01825404 C-3.32398427 38.2403476 -3.32990008 34.46259812 -3.34775543 30.68473053 C-3.36423264 27.12901733 -3.36639349 23.5735791 -3.35761642 20.01784134 C-3.35647859 18.09245049 -3.37020004 16.16706879 -3.3843689 14.24172974 C-3.37879974 13.09197662 -3.37323059 11.94222351 -3.36749268 10.75762939 C-3.36895924 9.76062641 -3.3704258 8.76362343 -3.3719368 7.73640823 C-2.9383931 4.54674659 -1.81384198 2.62817011 0 0 Z " fill="#9F9E9E" transform="translate(245,138)"/>
<path d="M0 0 C1.22169388 -0.00307663 2.44338776 -0.00615326 3.70210266 -0.00932312 C5.03732489 -0.0024226 6.37254527 0.00484458 7.70776367 0.01245117 C9.07915707 0.01364389 10.4505513 0.01409594 11.82194519 0.01383972 C14.69775502 0.01540402 17.57344027 0.02368641 20.44921875 0.03710938 C24.1243442 0.05405105 27.79933216 0.05792496 31.47449207 0.05716419 C34.30817462 0.05743707 37.14182748 0.06293796 39.97550011 0.07016563 C41.9861706 0.07487138 43.9968473 0.07662285 46.00752258 0.07832336 C47.23867294 0.08470322 48.4698233 0.09108307 49.73828125 0.09765625 C50.81733231 0.10146805 51.89638336 0.10527985 53.00813293 0.10920715 C56.09920061 0.24449414 59.02528488 0.67034046 62.06323242 1.24291992 C62.06323242 1.90291992 62.06323242 2.56291992 62.06323242 3.24291992 C63.38323242 3.57291992 64.70323242 3.90291992 66.06323242 4.24291992 C63.73028467 4.28533715 61.39620675 4.2838493 59.06323242 4.24291992 C58.56823242 3.74791992 58.56823242 3.74791992 58.06323242 3.24291992 C55.97781422 3.11905652 53.88823101 3.06492925 51.79931641 3.03759766 C51.14568115 3.02769806 50.4920459 3.01779846 49.81860352 3.00759888 C47.64888178 2.97590358 45.47913812 2.951195 43.30932617 2.92651367 C41.80859291 2.90595105 40.30786552 2.88495477 38.80714417 2.86354065 C34.85011549 2.80824837 30.89303393 2.75887081 26.93591309 2.71069336 C22.90083082 2.66053042 18.8658257 2.60481724 14.83081055 2.54956055 C6.90834965 2.44189152 -1.01417561 2.34046614 -8.93676758 2.24291992 C-5.45462107 -0.07851109 -4.10952669 -0.00543916 0 0 Z " fill="#A2A1A2" transform="translate(78.936767578125,128.757080078125)"/>
<path d="M0 0 C11.55 0 23.1 0 35 0 C35 0.33 35 0.66 35 1 C23.78 1 12.56 1 1 1 C1 15.19 1 29.38 1 44 C12.88 44 24.76 44 37 44 C37 43.34 37 42.68 37 42 C38.093125 41.71125 39.18625 41.4225 40.3125 41.125 C44.04013845 40.18106796 44.04013845 40.18106796 47 38 C45.99648322 40.91019866 45.10589857 41.93188418 42.48388672 43.6184082 C38.10759992 45.35389573 34.53886686 45.38104127 29.8828125 45.29296875 C29.12218506 45.28994751 28.36155762 45.28692627 27.57788086 45.28381348 C24.76011416 45.26822009 21.9425422 45.22633658 19.125 45.1875 C12.81375 45.125625 6.5025 45.06375 0 45 C0 30.15 0 15.3 0 0 Z " fill="#696768" transform="translate(96,169)"/>
<path d="M0 0 C1.04450821 -0.00073013 2.08901642 -0.00146027 3.16517639 -0.00221252 C6.60690806 0.00126223 10.04727518 0.04012042 13.48876953 0.0793457 C15.87915304 0.08867417 18.26954613 0.09579012 20.65994263 0.1007843 C26.94346632 0.11985115 33.22640975 0.16895049 39.50970459 0.2243042 C45.92452139 0.2755027 52.33943219 0.29829971 58.75439453 0.32348633 C71.33537089 0.37706849 83.91594556 0.46141384 96.49658203 0.56762695 C96.49658203 0.89762695 96.49658203 1.22762695 96.49658203 1.56762695 C61.18658203 1.89762695 25.87658203 2.22762695 -10.50341797 2.56762695 C-11.16341797 3.88762695 -11.82341797 5.20762695 -12.50341797 6.56762695 C-15.12841797 8.81762695 -15.12841797 8.81762695 -17.50341797 10.56762695 C-17.29785675 6.97030565 -16.56136802 5.63142658 -14.10519409 2.92732239 C-9.78642057 -0.49069638 -5.29963491 -0.09731603 0 0 Z " fill="#CECDCD" transform="translate(263.50341796875,129.432373046875)"/>
<path d="M0 0 C8.03198028 -0.02316114 16.06394662 -0.04093436 24.09595203 -0.05181217 C27.82545462 -0.05703273 31.55493438 -0.0641154 35.28442383 -0.07543945 C38.88297945 -0.08629767 42.4815131 -0.09228308 46.08008385 -0.09487724 C47.45361362 -0.09672619 48.82714218 -0.10033666 50.20066261 -0.10573006 C52.12310236 -0.11297928 54.04556417 -0.11340839 55.96801758 -0.11352539 C57.06277908 -0.115746 58.15754059 -0.11796661 59.28547668 -0.12025452 C62 0 62 0 65 1 C65 1.66 65 2.32 65 3 C32.33 2.505 32.33 2.505 -1 2 C-0.67 1.34 -0.34 0.68 0 0 Z " fill="#5E5C5D" transform="translate(76,145)"/>
<path d="M0 0 C20.13 0 40.26 0 61 0 C61 0.66 61 1.32 61 2 C61.99 2.33 62.98 2.66 64 3 C42.55 2.67 21.1 2.34 -1 2 C-0.67 1.34 -0.34 0.68 0 0 Z " fill="#565555" transform="translate(443,145)"/>
<path d="M0 0 C-7.7593194 4.56430553 -13.0589266 6.29509922 -22.11328125 6.1953125 C-23.08283249 6.1924826 -24.05238373 6.18965271 -25.05131531 6.18673706 C-28.13850405 6.17556991 -31.22539939 6.15047152 -34.3125 6.125 C-36.40950101 6.11496573 -38.50650658 6.10584066 -40.60351562 6.09765625 C-45.7357896 6.07564188 -50.8678451 6.04113571 -56 6 C-56 5.34 -56 4.68 -56 4 C-55.10394043 3.97494385 -54.20788086 3.9498877 -53.28466797 3.92407227 C-49.88875785 3.82766462 -46.49294812 3.72853174 -43.09716797 3.62768555 C-41.6408183 3.58496468 -40.18443836 3.54326102 -38.72802734 3.50268555 C-28.43743195 3.21506021 -7.97261808 -2.65753936 0 0 Z " fill="#ABAAAB" transform="translate(151,249)"/>
<path d="M0 0 C1.54646061 0.00612267 3.09293228 0.00986921 4.6394043 0.01135254 C7.87429299 0.02053743 11.10817994 0.04929926 14.34277344 0.09375 C18.47865621 0.15031395 22.61375187 0.17217559 26.74998474 0.1811142 C30.70842333 0.19145138 34.66666649 0.22052054 38.625 0.25 C39.75003433 0.25564217 39.75003433 0.25564217 40.89779663 0.26139832 C43.03239063 0.27522801 45.16638269 0.30253847 47.30078125 0.33398438 C48.51290283 0.34764038 49.72502441 0.36129639 50.97387695 0.37536621 C54.37611403 0.66160195 57.13375825 1.44040324 60.3125 2.65625 C60.3125 2.98625 60.3125 3.31625 60.3125 3.65625 C57.97955225 3.69866723 55.64547433 3.69717937 53.3125 3.65625 C52.8175 3.16125 52.8175 3.16125 52.3125 2.65625 C50.30358763 2.55690149 48.29115212 2.52825495 46.27978516 2.52685547 C44.98819489 2.52370331 43.69660461 2.52055115 42.36587524 2.51730347 C40.94443732 2.51909362 39.5229997 2.52114467 38.1015625 2.5234375 C36.65286238 2.52276429 35.20416238 2.52179412 33.75546265 2.52053833 C30.71391732 2.51906123 27.6724013 2.52121568 24.63085938 2.52587891 C20.73119068 2.53156607 16.83159096 2.52830372 12.93192482 2.52230644 C9.93795248 2.5186925 6.94399648 2.51984343 3.95002365 2.52243423 C2.51230232 2.52310172 1.0745795 2.52228128 -0.36314011 2.51995468 C-2.37409181 2.5174157 -4.38504871 2.52197154 -6.39599609 2.52685547 C-7.54103607 2.52765106 -8.68607605 2.52844666 -9.86581421 2.52926636 C-12.76741414 2.53107814 -12.76741414 2.53107814 -15.6875 3.65625 C-16.326875 4.460625 -16.96625 5.265 -17.625 6.09375 C-19.60141935 8.54930131 -20.81214744 9.52664721 -23.6875 10.65625 C-19.25056477 -0.87978159 -10.6767794 -0.18443339 0 0 Z " fill="#C8C7C8" transform="translate(451.6875,129.34375)"/>
<path d="M0 0 C0 3 0 3 -1.75 5.0625 C-3.79942627 6.82728373 -5.59151179 7.83728156 -8 9 C-8.33 9.66 -8.66 10.32 -9 11 C-12.65751539 12.84192733 -15.64425714 13.24539839 -19.70825195 13.22705078 C-20.82903641 13.22689972 -21.94982086 13.22674866 -23.10456848 13.22659302 C-24.3036937 13.21627045 -25.50281891 13.20594788 -26.73828125 13.1953125 C-28.59213692 13.19106766 -28.59213692 13.19106766 -30.48344421 13.18673706 C-33.75664997 13.17745218 -37.02965644 13.15950633 -40.30279541 13.1373291 C-43.64780848 13.11680817 -46.99283026 13.10789268 -50.33789062 13.09765625 C-56.89200474 13.07561795 -63.44598608 13.04215661 -70 13 C-70 12.67 -70 12.34 -70 12 C-69.3935817 11.98969254 -68.78716339 11.97938507 -68.16236877 11.96876526 C-61.8188424 11.8601149 -55.47544144 11.74556908 -49.13208008 11.62768555 C-46.76850015 11.58452326 -44.40489278 11.54283601 -42.04125977 11.50268555 C-38.63289136 11.44452716 -35.22465869 11.38096674 -31.81640625 11.31640625 C-30.76916885 11.29969376 -29.72193146 11.28298126 -28.64295959 11.26576233 C-22.69821228 11.14723544 -16.89888782 10.75310653 -11 10 C-11 9.34 -11 8.68 -11 8 C-9.35546875 6.81640625 -9.35546875 6.81640625 -7.1875 5.5625 C-4.40578131 3.94616437 -2.18823319 2.36770973 0 0 Z " fill="#878686" transform="translate(153,217)"/>
<path d="M0 0 C1.33332095 2.6666419 0.67102033 4.16680303 0 7 C-0.66 7 -1.32 7 -2 7 C-2 31.42 -2 55.84 -2 81 C-2.33 81 -2.66 81 -3 81 C-3.06953829 71.17722992 -3.12283074 61.3545185 -3.15543652 51.53155231 C-3.17108639 46.9702465 -3.19231226 42.40910922 -3.22631836 37.84790039 C-3.25893603 33.44532301 -3.27685812 29.04290763 -3.28463173 24.64021873 C-3.29017092 22.96130002 -3.30098765 21.28239009 -3.31719017 19.60354042 C-3.33899677 17.25022915 -3.34196562 14.89758565 -3.34057617 12.54418945 C-3.35675491 11.50516983 -3.35675491 11.50516983 -3.3732605 10.44515991 C-3.34569332 6.12458514 -2.54536251 3.49170816 0 0 Z " fill="#979696" transform="translate(245,138)"/>
<path d="M0 0 C2.60526455 1.30263227 2.90479698 2.32082567 4 5 C7.24590202 19.1056483 8.26412493 36.33834244 3 50 C2.67 50 2.34 50 2 50 C2.15984375 48.80117187 2.3196875 47.60234375 2.484375 46.3671875 C3.19097796 39.96015282 3.22256606 33.56511747 3.25 27.125 C3.270625 25.92230469 3.29125 24.71960938 3.3125 23.48046875 C3.34233204 16.61164096 2.72925674 10.66494495 0.64746094 4.10498047 C0 2 0 2 0 0 Z " fill="#D2D1D2" transform="translate(179,164)"/>
<path d="M0 0 C3 0.125 3 0.125 4 1.125 C4.125 4.125 4.125 4.125 4 7.125 C3 8.125 3 8.125 0 8.25 C-3 8.125 -3 8.125 -4 7.125 C-4.125 4.125 -4.125 4.125 -4 1.125 C-3 0.125 -3 0.125 0 0 Z " fill="#E6E1D7" transform="translate(886,293.875)"/>
<path d="M0 0 C3 0.125 3 0.125 4 1.125 C4.125 4.125 4.125 4.125 4 7.125 C3 8.125 3 8.125 0 8.25 C-3 8.125 -3 8.125 -4 7.125 C-4.125 4.125 -4.125 4.125 -4 1.125 C-3 0.125 -3 0.125 0 0 Z " fill="#DAE0E2" transform="translate(804,293.875)"/>
<path d="M0 0 C3 0.125 3 0.125 4 1.125 C4.125 4.125 4.125 4.125 4 7.125 C3 8.125 3 8.125 0 8.25 C-3 8.125 -3 8.125 -4 7.125 C-4.125 4.125 -4.125 4.125 -4 1.125 C-3 0.125 -3 0.125 0 0 Z " fill="#E2E4DF" transform="translate(895,192.875)"/>
<path d="M0 0 C4.96867309 5.64621942 5.29524821 12.28052735 5.125 19.4375 C5.11597656 20.16904297 5.10695313 20.90058594 5.09765625 21.65429688 C5.07436153 23.43634298 5.0385019 25.21821759 5 27 C4.34 27 3.68 27 3 27 C2.94465088 26.39526855 2.88930176 25.79053711 2.83227539 25.16748047 C2.57796135 22.40310534 2.32025918 19.63905593 2.0625 16.875 C1.93198242 15.44800781 1.93198242 15.44800781 1.79882812 13.9921875 C1.35804822 9.29053519 0.86831805 4.64667498 0 0 Z " fill="#9F9E9E" transform="translate(525,173)"/>
<path d="M0 0 C1.53333984 0.03383789 1.53333984 0.03383789 3.09765625 0.06835938 C5.60829581 0.12701918 8.11587379 0.20904072 10.625 0.3125 C10.625 0.6425 10.625 0.9725 10.625 1.3125 C-0.265 1.8075 -0.265 1.8075 -11.375 2.3125 C-12.035 3.6325 -12.695 4.9525 -13.375 6.3125 C-16 8.5625 -16 8.5625 -18.375 10.3125 C-18.17136341 6.74885968 -17.42283133 5.36670884 -15.03125 2.65625 C-10.5450322 -0.92616818 -5.47215574 -0.2294775 0 0 Z " fill="#B7B6B7" transform="translate(264.375,129.6875)"/>
<path d="M0 0 C0 3.75081172 -0.74290961 5.01481593 -3 8 C-5.29075513 9.76509876 -7.31706891 10.77620687 -10 12 C-12.22265625 11.6015625 -12.22265625 11.6015625 -14 11 C-13.24074219 10.45730469 -12.48148438 9.91460937 -11.69921875 9.35546875 C-10.70535156 8.64003906 -9.71148438 7.92460937 -8.6875 7.1875 C-7.70136719 6.47980469 -6.71523438 5.77210938 -5.69921875 5.04296875 C-3.59942813 3.45369163 -1.77965031 1.92542371 0 0 Z " fill="#4B4A4B" transform="translate(534,236)"/>
<path d="M0 0 C0.625 1.875 0.625 1.875 1 4 C0.34 4.66 -0.32 5.32 -1 6 C-1.061875 6.9075 -1.12375 7.815 -1.1875 8.75 C-2.34787414 13.39149656 -5.25413892 15.24195085 -9 18 C-9.66 17.67 -10.32 17.34 -11 17 C-10.60167969 16.49210937 -10.20335937 15.98421875 -9.79296875 15.4609375 C-6.71433825 11.46096502 -4.08404386 7.63120857 -2 3 C-1.34 3 -0.68 3 0 3 C0 2.01 0 1.02 0 0 Z " fill="#5C5B5C" transform="translate(546,218)"/>
<path d="M0 0 C1.33332095 2.6666419 0.67102033 4.16680303 0 7 C-0.66 7 -1.32 7 -2 7 C-2 16.57 -2 26.14 -2 36 C-2.33 36 -2.66 36 -3 36 C-3.0744013 31.67671196 -3.12871968 27.35376745 -3.16479492 23.0300293 C-3.17984066 21.56056218 -3.20028238 20.09113966 -3.22631836 18.62182617 C-3.26288955 16.5042823 -3.27976801 14.38733435 -3.29296875 12.26953125 C-3.3086792 10.99698486 -3.32438965 9.72443848 -3.34057617 8.41333008 C-2.97913177 4.79085399 -2.11371197 2.91823902 0 0 Z " fill="#919091" transform="translate(245,138)"/>
<path d="M0 0 C0 0.99 0 1.98 0 3 C-3.13095049 6.13095049 -5.93181909 6.93738682 -10.33203125 7.1953125 C-11.48058594 7.17210937 -12.62914062 7.14890625 -13.8125 7.125 C-14.97394531 7.10695312 -16.13539062 7.08890625 -17.33203125 7.0703125 C-18.21246094 7.04710937 -19.09289062 7.02390625 -20 7 C-20 6.67 -20 6.34 -20 6 C-16.37 6 -12.74 6 -9 6 C-9 5.34 -9 4.68 -9 4 C-7.88625 3.71125 -6.7725 3.4225 -5.625 3.125 C-1.99708908 2.30758671 -1.99708908 2.30758671 0 0 Z " fill="#777676" transform="translate(142,207)"/>
<path d="M0 0 C0 3.77910478 -0.99703962 4.46106101 -3.5 7.1875 C-4.1496875 7.90292969 -4.799375 8.61835938 -5.46875 9.35546875 C-5.9740625 9.89816406 -6.479375 10.44085938 -7 11 C-8.32 10.67 -9.64 10.34 -11 10 C-9.93458984 9.04287109 -9.93458984 9.04287109 -8.84765625 8.06640625 C-7.46900391 6.82697266 -7.46900391 6.82697266 -6.0625 5.5625 C-4.68771484 4.32693359 -4.68771484 4.32693359 -3.28515625 3.06640625 C-1.61665644 1.56046061 -1.61665644 1.56046061 0 0 Z " fill="#818081" transform="translate(170,233)"/>
<path d="M0 0 C2.59168238 1.29584119 2.92542197 2.33651601 4 5 C4.4140625 7.578125 4.4140625 7.578125 4.625 10.25 C4.69976562 11.14203125 4.77453125 12.0340625 4.8515625 12.953125 C4.90054688 13.62859375 4.94953125 14.3040625 5 15 C2.56158876 12.56158876 2.23847249 10.81433885 1.375 7.5 C1.11460937 6.5203125 0.85421875 5.540625 0.5859375 4.53125 C0 2 0 2 0 0 Z " fill="#9A9899" transform="translate(179,164)"/>
<path d="M0 0 C0.66 0.33 1.32 0.66 2 1 C1.0919838 2.13199353 0.17316174 3.25532363 -0.75 4.375 C-1.26046875 5.00148437 -1.7709375 5.62796875 -2.296875 6.2734375 C-4.08199481 8.08312318 -5.67949644 9.00117455 -8 10 C-6.34908222 5.70761377 -3.26245434 3.1206085 0 0 Z " fill="#A7A6A6" transform="translate(436,130)"/>
<path d="M0 0 C1.32 0.33 2.64 0.66 4 1 C0.535 3.97 0.535 3.97 -3 7 C-2.25 2.25 -2.25 2.25 0 0 Z " fill="#C8C8C8" transform="translate(249,133)"/>
<path d="M0 0 C-6.4 4.06153846 -6.4 4.06153846 -9.4375 3.75 C-9.953125 3.5025 -10.46875 3.255 -11 3 C-7.74003139 -0.25996861 -4.40088745 -1.46696248 0 0 Z " fill="#B0AFB0" transform="translate(151,249)"/>
<path d="M0 0 C0.66 0.33 1.32 0.66 2 1 C-0.25 3.5625 -0.25 3.5625 -3 6 C-4.32 5.67 -5.64 5.34 -7 5 C-4.69 3.35 -2.38 1.7 0 0 Z " fill="#686767" transform="translate(527,242)"/>
</svg>
